STARTFONT 2.1
COMMENT
COMMENT Converted from OpenType font "titilliumweb-regular.otf" by "otf2bdf 3.0".
COMMENT
FONT -FreeType-Titillium Web-Medium-R-Normal--22-160-100-100-P-93-ISO10646-1
SIZE 16 100 100
FONTBOUNDINGBOX 29 30 -5 -6
STARTPROPERTIES 19
FOUNDRY "FreeType"
FAMILY_NAME "Titillium Web"
WEIGHT_NAME "Medium"
SLANT "R"
SETWIDTH_NAME "Normal"
ADD_STYLE_NAME ""
PIXEL_SIZE 22
POINT_SIZE 160
RESOLUTION_X 100
RESOLUTION_Y 100
SPACING "P"
AVERAGE_WIDTH 93
CHARSET_REGISTRY "ISO10646"
CHARSET_ENCODING "1"
FONT_ASCENT 24
FONT_DESCENT 8
COPYRIGHT "Copyright (c) 2009-2011 by Accademia di Belle Arti di Urbino and students of MA course of Visual design. Some rights reserved."
_OTF_FONTFILE "titilliumweb-regular.otf"
_OTF_PSNAME "TitilliumWeb-Regular"
ENDPROPERTIES
CHARS 396
STARTCHAR 0020
ENCODING 32
SWIDTH 225 0
DWIDTH 5 0
BBX 0 0 0 0
BITMAP
ENDCHAR
STARTCHAR 0021
ENCODING 33
SWIDTH 225 0
DWIDTH 5 0
BBX 2 15 2 0
BITMAP
C0
C0
C0
C0
C0
C0
C0
C0
C0
C0
00
00
00
C0
C0
ENDCHAR
STARTCHAR 0022
ENCODING 34
SWIDTH 360 0
DWIDTH 8 0
BBX 6 5 1 10
BITMAP
CC
CC
4C
4C
4C
ENDCHAR
STARTCHAR 0023
ENCODING 35
SWIDTH 540 0
DWIDTH 12 0
BBX 11 15 1 0
BITMAP
3100
3100
3100
3100
FFE0
FFE0
3100
3100
3100
3100
FFE0
3100
3100
3100
3100
ENDCHAR
STARTCHAR 0024
ENCODING 36
SWIDTH 540 0
DWIDTH 12 0
BBX 9 21 2 -3
BITMAP
0400
0400
0400
3F00
FF80
CC00
8800
8800
C800
F800
3E00
0F00
0980
1980
1180
1180
9300
FE00
1000
1000
1000
ENDCHAR
STARTCHAR 0025
ENCODING 37
SWIDTH 540 0
DWIDTH 12 0
BBX 11 15 1 0
BITMAP
6100
9300
9200
9200
9200
F400
0400
0400
0C00
09C0
0B60
0A60
1260
1360
11C0
ENDCHAR
STARTCHAR 0026
ENCODING 38
SWIDTH 675 0
DWIDTH 15 0
BBX 13 16 1 0
BITMAP
0600
1F80
30C0
30C0
30C0
3080
1B80
3E00
6630
C330
C1B0
C0E0
C060
C0F0
71D8
3F08
ENDCHAR
STARTCHAR 0027
ENCODING 39
SWIDTH 225 0
DWIDTH 5 0
BBX 2 5 1 10
BITMAP
C0
40
40
40
40
ENDCHAR
STARTCHAR 0028
ENCODING 40
SWIDTH 270 0
DWIDTH 6 0
BBX 4 20 1 -3
BITMAP
30
30
20
60
60
60
40
C0
C0
C0
C0
C0
C0
C0
40
60
60
20
30
30
ENDCHAR
STARTCHAR 0029
ENCODING 41
SWIDTH 270 0
DWIDTH 6 0
BBX 4 20 1 -3
BITMAP
80
C0
40
60
60
60
20
20
30
30
30
30
30
20
60
60
60
40
C0
C0
ENDCHAR
STARTCHAR 002A
ENCODING 42
SWIDTH 405 0
DWIDTH 9 0
BBX 7 8 1 8
BITMAP
08
08
D8
30
3E
78
08
08
ENDCHAR
STARTCHAR 002B
ENCODING 43
SWIDTH 540 0
DWIDTH 12 0
BBX 10 11 1 0
BITMAP
0C00
0C00
0C00
0C00
0C00
FFC0
0C00
0C00
0C00
0C00
0C00
ENDCHAR
STARTCHAR 002C
ENCODING 44
SWIDTH 225 0
DWIDTH 5 0
BBX 2 5 1 -3
BITMAP
40
C0
C0
80
80
ENDCHAR
STARTCHAR 002D
ENCODING 45
SWIDTH 450 0
DWIDTH 10 0
BBX 7 2 1 5
BITMAP
FE
FE
ENDCHAR
STARTCHAR 002E
ENCODING 46
SWIDTH 225 0
DWIDTH 5 0
BBX 2 3 1 0
BITMAP
C0
C0
C0
ENDCHAR
STARTCHAR 002F
ENCODING 47
SWIDTH 405 0
DWIDTH 9 0
BBX 7 16 1 0
BITMAP
02
06
06
04
0C
0C
18
18
10
30
30
60
60
40
C0
C0
ENDCHAR
STARTCHAR 0030
ENCODING 48
SWIDTH 540 0
DWIDTH 12 0
BBX 11 15 1 0
BITMAP
1F00
7F80
60C0
C0C0
C040
C040
C060
C060
C060
C040
C040
C0C0
60C0
7180
3F00
ENDCHAR
STARTCHAR 0031
ENCODING 49
SWIDTH 540 0
DWIDTH 12 0
BBX 7 15 2 0
BITMAP
06
1E
3E
E6
46
06
06
06
06
06
06
06
06
06
06
ENDCHAR
STARTCHAR 0032
ENCODING 50
SWIDTH 540 0
DWIDTH 12 0
BBX 9 15 2 0
BITMAP
7C00
FF00
0300
0100
0180
0100
0300
0600
0C00
1C00
3800
7000
6000
C000
FF80
ENDCHAR
STARTCHAR 0033
ENCODING 51
SWIDTH 540 0
DWIDTH 12 0
BBX 10 15 1 0
BITMAP
7F00
7F80
0180
00C0
00C0
0180
0380
3F00
0180
00C0
00C0
00C0
00C0
4380
FF00
ENDCHAR
STARTCHAR 0034
ENCODING 52
SWIDTH 540 0
DWIDTH 12 0
BBX 11 15 1 0
BITMAP
0C00
0800
1800
1800
3000
3000
2180
6180
6180
C180
C180
FFE0
0180
0180
0180
ENDCHAR
STARTCHAR 0035
ENCODING 53
SWIDTH 540 0
DWIDTH 12 0
BBX 10 15 1 0
BITMAP
7FC0
7FC0
4000
4000
4000
4000
7F80
71C0
00C0
00C0
00C0
00C0
00C0
4380
FF00
ENDCHAR
STARTCHAR 0036
ENCODING 54
SWIDTH 540 0
DWIDTH 12 0
BBX 10 15 1 0
BITMAP
0FC0
3FC0
6000
6000
C000
C000
FF80
F1C0
C0C0
C040
C040
4040
60C0
31C0
1F00
ENDCHAR
STARTCHAR 0037
ENCODING 55
SWIDTH 540 0
DWIDTH 12 0
BBX 9 15 2 0
BITMAP
FF80
FF80
0180
0100
0300
0300
0600
0600
0C00
0C00
1800
1800
1000
3000
2000
ENDCHAR
STARTCHAR 0038
ENCODING 56
SWIDTH 540 0
DWIDTH 12 0
BBX 11 15 1 0
BITMAP
3F00
7FC0
C0C0
C040
C040
C0C0
7180
3F00
61C0
C040
C060
C060
C0C0
F1C0
7F80
ENDCHAR
STARTCHAR 0039
ENCODING 57
SWIDTH 540 0
DWIDTH 12 0
BBX 10 15 1 0
BITMAP
1E00
7F80
E180
C0C0
C0C0
C0C0
C040
E1C0
7FC0
00C0
00C0
00C0
0180
0380
FF00
ENDCHAR
STARTCHAR 003A
ENCODING 58
SWIDTH 225 0
DWIDTH 5 0
BBX 2 10 1 0
BITMAP
C0
C0
C0
00
00
00
00
C0
C0
C0
ENDCHAR
STARTCHAR 003B
ENCODING 59
SWIDTH 270 0
DWIDTH 6 0
BBX 3 13 1 -3
BITMAP
60
60
60
00
00
00
00
00
60
40
C0
C0
C0
ENDCHAR
STARTCHAR 003C
ENCODING 60
SWIDTH 540 0
DWIDTH 12 0
BBX 10 11 1 0
BITMAP
0040
01C0
0700
1C00
7000
C000
7000
1C00
0780
01C0
0040
ENDCHAR
STARTCHAR 003D
ENCODING 61
SWIDTH 540 0
DWIDTH 12 0
BBX 10 5 1 3
BITMAP
FFC0
0000
0000
0000
FFC0
ENDCHAR
STARTCHAR 003E
ENCODING 62
SWIDTH 540 0
DWIDTH 12 0
BBX 9 9 2 1
BITMAP
E000
7800
1E00
0780
0180
0700
1C00
7000
C000
ENDCHAR
STARTCHAR 003F
ENCODING 63
SWIDTH 450 0
DWIDTH 10 0
BBX 8 16 1 0
BITMAP
38
FE
03
03
03
03
06
0C
18
30
30
10
00
30
30
30
ENDCHAR
STARTCHAR 0040
ENCODING 64
SWIDTH 990 0
DWIDTH 22 0
BBX 20 21 1 -5
BITMAP
03FC00
0F0F80
1801C0
3000C0
600060
61FC20
438C20
C30C30
C20C30
C60C30
C60430
C60430
C20430
C30420
43BE60
61F3C0
600000
300000
1C0000
0FF800
002000
ENDCHAR
STARTCHAR 0041
ENCODING 65
SWIDTH 585 0
DWIDTH 13 0
BBX 12 15 1 0
BITMAP
0F00
1B00
1900
1180
3180
3180
3080
20C0
60C0
6040
7FC0
C060
C060
C020
8030
ENDCHAR
STARTCHAR 0042
ENCODING 66
SWIDTH 630 0
DWIDTH 14 0
BBX 10 15 2 0
BITMAP
FF80
C1C0
C0C0
C0C0
C0C0
C0C0
FF80
FF80
C0C0
C040
C040
C040
C0C0
C3C0
FF00
ENDCHAR
STARTCHAR 0043
ENCODING 67
SWIDTH 540 0
DWIDTH 12 0
BBX 10 16 1 0
BITMAP
0700
3FC0
7000
6000
4000
C000
C000
C000
C000
C000
C000
C000
6000
6000
3840
1FC0
ENDCHAR
STARTCHAR 0044
ENCODING 68
SWIDTH 630 0
DWIDTH 14 0
BBX 11 15 2 0
BITMAP
FF80
C1C0
C0C0
C060
C060
C060
C060
C060
C060
C060
C060
C040
C0C0
C780
FF00
ENDCHAR
STARTCHAR 0045
ENCODING 69
SWIDTH 540 0
DWIDTH 12 0
BBX 9 15 2 0
BITMAP
FF80
C000
C000
C000
C000
C000
FF00
FF00
C000
C000
C000
C000
C000
C000
FF80
ENDCHAR
STARTCHAR 0046
ENCODING 70
SWIDTH 540 0
DWIDTH 12 0
BBX 9 15 2 0
BITMAP
FF80
C000
C000
C000
C000
C000
C000
FF00
FF00
C000
C000
C000
C000
C000
C000
ENDCHAR
STARTCHAR 0047
ENCODING 71
SWIDTH 630 0
DWIDTH 14 0
BBX 11 16 1 0
BITMAP
0700
3FE0
7000
6000
4000
C000
C000
C000
C1E0
C1E0
C020
4020
6020
6020
3860
1FE0
ENDCHAR
STARTCHAR 0048
ENCODING 72
SWIDTH 675 0
DWIDTH 15 0
BBX 11 15 2 0
BITMAP
C060
C060
C060
C060
C060
C060
C060
FFE0
C060
C060
C060
C060
C060
C060
C060
ENDCHAR
STARTCHAR 0049
ENCODING 73
SWIDTH 225 0
DWIDTH 5 0
BBX 2 15 2 0
BITMAP
C0
C0
C0
C0
C0
C0
C0
C0
C0
C0
C0
C0
C0
C0
C0
ENDCHAR
STARTCHAR 004A
ENCODING 74
SWIDTH 270 0
DWIDTH 6 0
BBX 5 17 0 -2
BITMAP
18
18
18
18
18
18
18
18
18
18
18
18
18
18
10
F0
C0
ENDCHAR
STARTCHAR 004B
ENCODING 75
SWIDTH 585 0
DWIDTH 13 0
BBX 10 15 2 0
BITMAP
C0C0
C180
C300
C300
C600
C600
CC00
FC00
CC00
C600
C300
C300
C180
C180
C0C0
ENDCHAR
STARTCHAR 004C
ENCODING 76
SWIDTH 495 0
DWIDTH 11 0
BBX 8 15 2 0
BITMAP
C0
C0
C0
C0
C0
C0
C0
C0
C0
C0
C0
C0
C0
FF
FF
ENDCHAR
STARTCHAR 004D
ENCODING 77
SWIDTH 855 0
DWIDTH 19 0
BBX 15 15 2 0
BITMAP
E01E
F01E
F016
D036
D836
D826
C866
CC66
CC46
C4C6
C6C6
C686
C386
C386
C006
ENDCHAR
STARTCHAR 004E
ENCODING 78
SWIDTH 675 0
DWIDTH 15 0
BBX 11 15 2 0
BITMAP
E060
F060
D060
D860
D860
CC60
CC60
C460
C660
C260
C360
C360
C1E0
C1E0
C0E0
ENDCHAR
STARTCHAR 004F
ENCODING 79
SWIDTH 675 0
DWIDTH 15 0
BBX 12 16 1 0
BITMAP
0700
3FC0
3060
6030
4030
C030
C010
C010
C010
C010
C010
4030
6030
6030
38E0
1FC0
ENDCHAR
STARTCHAR 0050
ENCODING 80
SWIDTH 585 0
DWIDTH 13 0
BBX 10 15 2 0
BITMAP
FF80
C1C0
C0C0
C040
C040
C040
C0C0
C0C0
FF80
FF00
C000
C000
C000
C000
C000
ENDCHAR
STARTCHAR 0051
ENCODING 81
SWIDTH 675 0
DWIDTH 15 0
BBX 12 19 1 -3
BITMAP
0700
3FC0
3060
6030
4030
C030
C010
C010
C010
C010
C010
4030
6030
6030
38E0
1FC0
00E0
0060
0030
ENDCHAR
STARTCHAR 0052
ENCODING 82
SWIDTH 630 0
DWIDTH 14 0
BBX 10 15 2 0
BITMAP
FF80
C1C0
C0C0
C040
C040
C040
C0C0
C1C0
FF00
C300
C100
C180
C080
C0C0
C0C0
ENDCHAR
STARTCHAR 0053
ENCODING 83
SWIDTH 540 0
DWIDTH 12 0
BBX 10 16 1 0
BITMAP
0E00
7FC0
E000
C000
C000
C000
E000
7C00
1F80
01C0
00C0
00C0
00C0
00C0
C380
FF00
ENDCHAR
STARTCHAR 0054
ENCODING 84
SWIDTH 540 0
DWIDTH 12 0
BBX 11 15 0 0
BITMAP
FFE0
0600
0600
0600
0600
0600
0600
0600
0600
0600
0600
0600
0600
0600
0600
ENDCHAR
STARTCHAR 0055
ENCODING 85
SWIDTH 630 0
DWIDTH 14 0
BBX 11 15 2 0
BITMAP
8060
8060
8060
8060
8060
8060
8060
8060
8060
8060
8060
C040
C0C0
61C0
3F80
ENDCHAR
STARTCHAR 0056
ENCODING 86
SWIDTH 585 0
DWIDTH 13 0
BBX 11 15 1 0
BITMAP
C060
C060
C060
4040
60C0
60C0
60C0
2080
3180
3180
3180
1100
1B00
1B00
1F00
ENDCHAR
STARTCHAR 0057
ENCODING 87
SWIDTH 900 0
DWIDTH 20 0
BBX 18 15 1 0
BITMAP
C0C0C0
C1C0C0
C1C080
C16080
416180
612180
632180
633100
623100
221300
261300
361B00
341A00
341A00
1C0E00
ENDCHAR
STARTCHAR 0058
ENCODING 88
SWIDTH 540 0
DWIDTH 12 0
BBX 11 15 1 0
BITMAP
C040
40C0
6180
3180
3300
1A00
0E00
0C00
0E00
1B00
3300
2180
6080
C0C0
C060
ENDCHAR
STARTCHAR 0059
ENCODING 89
SWIDTH 540 0
DWIDTH 12 0
BBX 10 15 1 0
BITMAP
C0C0
C0C0
6180
6180
3300
3300
1E00
0C00
0C00
0C00
0C00
0C00
0C00
0C00
0C00
ENDCHAR
STARTCHAR 005A
ENCODING 90
SWIDTH 540 0
DWIDTH 12 0
BBX 10 15 1 0
BITMAP
FFC0
00C0
0180
0180
0300
0600
0600
0C00
1800
3000
3000
6000
C000
C000
FFC0
ENDCHAR
STARTCHAR 005B
ENCODING 91
SWIDTH 315 0
DWIDTH 7 0
BBX 4 20 2 -3
BITMAP
F0
F0
80
80
80
80
80
80
80
80
80
80
80
80
80
80
80
80
F0
F0
ENDCHAR
STARTCHAR 005C
ENCODING 92
SWIDTH 450 0
DWIDTH 10 0
BBX 8 15 1 1
BITMAP
C0
C0
60
60
20
30
10
18
18
0C
0C
06
06
02
03
ENDCHAR
STARTCHAR 005D
ENCODING 93
SWIDTH 315 0
DWIDTH 7 0
BBX 5 20 1 -3
BITMAP
F8
F8
18
18
18
18
18
18
18
18
18
18
18
18
18
18
18
18
F8
F8
ENDCHAR
STARTCHAR 005E
ENCODING 94
SWIDTH 540 0
DWIDTH 12 0
BBX 9 8 2 7
BITMAP
1800
1C00
3C00
2600
6200
4300
C100
8180
ENDCHAR
STARTCHAR 005F
ENCODING 95
SWIDTH 630 0
DWIDTH 14 0
BBX 10 2 2 -4
BITMAP
FFC0
FFC0
ENDCHAR
STARTCHAR 0060
ENCODING 96
SWIDTH 225 0
DWIDTH 5 0
BBX 5 3 0 13
BITMAP
E0
78
08
ENDCHAR
STARTCHAR 0061
ENCODING 97
SWIDTH 495 0
DWIDTH 11 0
BBX 10 11 1 0
BITMAP
7F00
0300
0100
0100
0F00
7D00
C100
C100
C100
C380
7FC0
ENDCHAR
STARTCHAR 0062
ENCODING 98
SWIDTH 540 0
DWIDTH 12 0
BBX 9 16 2 0
BITMAP
8000
8000
8000
8000
8000
FE00
C300
8300
8100
8180
8180
8180
8100
8300
8700
FE00
ENDCHAR
STARTCHAR 0063
ENCODING 99
SWIDTH 450 0
DWIDTH 10 0
BBX 8 11 1 0
BITMAP
3F
60
C0
C0
C0
C0
C0
C0
C0
60
3F
ENDCHAR
STARTCHAR 0064
ENCODING 100
SWIDTH 540 0
DWIDTH 12 0
BBX 9 16 1 0
BITMAP
0180
0180
0180
0180
0180
3F80
6180
4180
C180
C180
C180
C180
C180
C180
6380
3F80
ENDCHAR
STARTCHAR 0065
ENCODING 101
SWIDTH 495 0
DWIDTH 11 0
BBX 9 11 1 0
BITMAP
3F00
6380
4180
C180
C080
FF80
C000
C000
C000
6000
3F80
ENDCHAR
STARTCHAR 0066
ENCODING 102
SWIDTH 315 0
DWIDTH 7 0
BBX 6 16 1 0
BITMAP
3C
60
60
60
60
FC
60
60
60
60
60
60
60
60
60
60
ENDCHAR
STARTCHAR 0067
ENCODING 103
SWIDTH 495 0
DWIDTH 11 0
BBX 10 16 1 -5
BITMAP
7FC0
6300
C180
C180
C180
6300
7E00
2000
6000
7E00
7F80
C0C0
C0C0
C0C0
E180
7F00
ENDCHAR
STARTCHAR 0068
ENCODING 104
SWIDTH 540 0
DWIDTH 12 0
BBX 8 16 2 0
BITMAP
80
80
80
80
80
FE
C3
83
81
81
81
81
81
81
81
81
ENDCHAR
STARTCHAR 0069
ENCODING 105
SWIDTH 225 0
DWIDTH 5 0
BBX 1 16 2 0
BITMAP
80
80
00
00
00
80
80
80
80
80
80
80
80
80
80
80
ENDCHAR
STARTCHAR 006A
ENCODING 106
SWIDTH 225 0
DWIDTH 5 0
BBX 4 21 -1 -5
BITMAP
10
10
00
00
00
10
10
10
10
10
10
10
10
10
10
10
10
30
30
E0
80
ENDCHAR
STARTCHAR 006B
ENCODING 107
SWIDTH 495 0
DWIDTH 11 0
BBX 8 16 2 0
BITMAP
80
80
80
80
80
83
86
8C
8C
F8
F8
98
8C
86
86
83
ENDCHAR
STARTCHAR 006C
ENCODING 108
SWIDTH 225 0
DWIDTH 5 0
BBX 1 16 2 0
BITMAP
80
80
80
80
80
80
80
80
80
80
80
80
80
80
80
80
ENDCHAR
STARTCHAR 006D
ENCODING 109
SWIDTH 855 0
DWIDTH 19 0
BBX 15 11 2 0
BITMAP
BEFC
C38E
8306
8306
8106
8106
8106
8106
8106
8106
8106
ENDCHAR
STARTCHAR 006E
ENCODING 110
SWIDTH 540 0
DWIDTH 12 0
BBX 8 11 2 0
BITMAP
BE
C3
81
81
81
81
81
81
81
81
81
ENDCHAR
STARTCHAR 006F
ENCODING 111
SWIDTH 540 0
DWIDTH 12 0
BBX 10 11 1 0
BITMAP
3F00
6180
C180
C080
C0C0
C0C0
C0C0
C080
C180
6180
3F00
ENDCHAR
STARTCHAR 0070
ENCODING 112
SWIDTH 540 0
DWIDTH 12 0
BBX 9 16 2 -5
BITMAP
BE00
E300
8300
8100
8180
8180
8180
8100
8300
8700
FE00
8000
8000
8000
8000
8000
ENDCHAR
STARTCHAR 0071
ENCODING 113
SWIDTH 540 0
DWIDTH 12 0
BBX 9 16 1 -5
BITMAP
3F80
6180
C180
C180
C180
C180
C180
C180
C180
6380
3F80
0180
0180
0180
0180
0180
ENDCHAR
STARTCHAR 0072
ENCODING 114
SWIDTH 360 0
DWIDTH 8 0
BBX 5 11 2 0
BITMAP
98
F8
C0
80
80
80
80
80
80
80
80
ENDCHAR
STARTCHAR 0073
ENCODING 115
SWIDTH 450 0
DWIDTH 10 0
BBX 8 11 1 0
BITMAP
7F
C0
C0
C0
F0
3E
03
01
01
83
FE
ENDCHAR
STARTCHAR 0074
ENCODING 116
SWIDTH 360 0
DWIDTH 8 0
BBX 6 15 1 0
BITMAP
60
60
60
60
FC
60
60
60
60
60
60
60
60
60
3C
ENDCHAR
STARTCHAR 0075
ENCODING 117
SWIDTH 540 0
DWIDTH 12 0
BBX 9 11 1 0
BITMAP
C080
C080
C080
C080
C080
C080
C080
4080
4080
6380
3E80
ENDCHAR
STARTCHAR 0076
ENCODING 118
SWIDTH 495 0
DWIDTH 11 0
BBX 9 11 1 0
BITMAP
8180
C180
C100
4300
6300
6300
6200
2600
3600
3400
1C00
ENDCHAR
STARTCHAR 0077
ENCODING 119
SWIDTH 765 0
DWIDTH 17 0
BBX 15 11 1 0
BITMAP
8306
C386
C386
4284
46C4
66CC
644C
6448
2C68
3C78
3838
ENDCHAR
STARTCHAR 0078
ENCODING 120
SWIDTH 450 0
DWIDTH 10 0
BBX 8 11 1 0
BITMAP
C3
C3
66
3C
3C
18
3C
24
66
C3
C3
ENDCHAR
STARTCHAR 0079
ENCODING 121
SWIDTH 495 0
DWIDTH 11 0
BBX 9 16 1 -5
BITMAP
8180
C180
C100
4300
6300
6300
6200
2600
3600
3400
1C00
0C00
0C00
0800
1800
1800
ENDCHAR
STARTCHAR 007A
ENCODING 122
SWIDTH 450 0
DWIDTH 10 0
BBX 8 11 1 0
BITMAP
FF
03
06
06
0C
18
30
60
60
C0
FF
ENDCHAR
STARTCHAR 007B
ENCODING 123
SWIDTH 360 0
DWIDTH 8 0
BBX 6 20 1 -3
BITMAP
0C
3C
30
20
20
20
30
30
60
E0
C0
60
20
30
20
20
20
30
3C
0C
ENDCHAR
STARTCHAR 007C
ENCODING 124
SWIDTH 225 0
DWIDTH 5 0
BBX 1 21 2 -5
BITMAP
80
80
80
80
80
80
80
80
80
80
80
80
80
80
80
80
80
80
80
80
80
ENDCHAR
STARTCHAR 007D
ENCODING 125
SWIDTH 360 0
DWIDTH 8 0
BBX 6 20 1 -3
BITMAP
C0
E0
30
30
30
30
30
30
30
1C
0C
18
30
30
30
30
30
30
E0
C0
ENDCHAR
STARTCHAR 007E
ENCODING 126
SWIDTH 540 0
DWIDTH 12 0
BBX 9 3 2 4
BITMAP
F080
9F80
0200
ENDCHAR
STARTCHAR 00A0
ENCODING 160
SWIDTH 225 0
DWIDTH 5 0
BBX 0 0 0 0
BITMAP
ENDCHAR
STARTCHAR 00A1
ENCODING 161
SWIDTH 225 0
DWIDTH 5 0
BBX 1 15 2 -4
BITMAP
80
80
00
00
00
80
80
80
80
80
80
80
80
80
80
ENDCHAR
STARTCHAR 00A2
ENCODING 162
SWIDTH 540 0
DWIDTH 12 0
BBX 8 15 2 -2
BITMAP
0C
0C
0C
3F
60
C0
C0
C0
C0
C0
60
3F
0C
0C
0C
ENDCHAR
STARTCHAR 00A3
ENCODING 163
SWIDTH 540 0
DWIDTH 12 0
BBX 9 15 2 0
BITMAP
1F00
3F00
3000
2000
2000
2000
FE00
2000
2000
2000
2000
2000
2000
2100
FF80
ENDCHAR
STARTCHAR 00A4
ENCODING 164
SWIDTH 540 0
DWIDTH 12 0
BBX 10 9 1 2
BITMAP
CCC0
7F80
3180
6080
6080
6080
3180
7F80
40C0
ENDCHAR
STARTCHAR 00A5
ENCODING 165
SWIDTH 540 0
DWIDTH 12 0
BBX 11 15 1 0
BITMAP
C060
C0C0
60C0
6180
3300
1B00
1E00
FFC0
0C00
0C00
FFC0
0C00
0C00
0C00
0C00
ENDCHAR
STARTCHAR 00A6
ENCODING 166
SWIDTH 225 0
DWIDTH 5 0
BBX 1 21 2 -5
BITMAP
80
80
80
80
80
80
80
80
00
00
00
00
00
80
80
80
80
80
80
80
80
ENDCHAR
STARTCHAR 00A7
ENCODING 167
SWIDTH 495 0
DWIDTH 11 0
BBX 9 17 1 -3
BITMAP
7F00
6000
C000
C000
6000
7C00
4F00
C180
C180
C180
7D00
1F00
0180
0180
0180
0300
7F00
ENDCHAR
STARTCHAR 00A8
ENCODING 168
SWIDTH 225 0
DWIDTH 5 0
BBX 6 2 0 14
BITMAP
8C
8C
ENDCHAR
STARTCHAR 00A9
ENCODING 169
SWIDTH 630 0
DWIDTH 14 0
BBX 12 12 1 4
BITMAP
0700
18C0
2060
4F20
4810
8810
8810
8810
4D10
4720
2060
1F80
ENDCHAR
STARTCHAR 00AA
ENCODING 170
SWIDTH 405 0
DWIDTH 9 0
BBX 6 7 1 8
BITMAP
30
7C
0C
7C
CC
CC
7C
ENDCHAR
STARTCHAR 00AB
ENCODING 171
SWIDTH 540 0
DWIDTH 12 0
BBX 9 7 1 1
BITMAP
1080
3180
E300
8600
E300
3180
1080
ENDCHAR
STARTCHAR 00AC
ENCODING 172
SWIDTH 540 0
DWIDTH 12 0
BBX 10 5 1 3
BITMAP
FFC0
FFC0
00C0
00C0
00C0
ENDCHAR
STARTCHAR 00AE
ENCODING 174
SWIDTH 630 0
DWIDTH 14 0
BBX 12 12 1 4
BITMAP
0700
18C0
2060
4F20
4990
8990
8F10
8B10
4910
49A0
2060
1F80
ENDCHAR
STARTCHAR 00AF
ENCODING 175
SWIDTH 225 0
DWIDTH 5 0
BBX 6 1 0 14
BITMAP
FC
ENDCHAR
STARTCHAR 00B0
ENCODING 176
SWIDTH 540 0
DWIDTH 12 0
BBX 6 7 3 9
BITMAP
30
7C
84
84
84
4C
30
ENDCHAR
STARTCHAR 00B1
ENCODING 177
SWIDTH 540 0
DWIDTH 12 0
BBX 10 10 1 1
BITMAP
0C00
0C00
0C00
FFC0
0FC0
0C00
0C00
0000
0000
FFC0
ENDCHAR
STARTCHAR 00B2
ENCODING 178
SWIDTH 270 0
DWIDTH 6 0
BBX 4 7 1 11
BITMAP
E0
F0
10
30
60
C0
F0
ENDCHAR
STARTCHAR 00B3
ENCODING 179
SWIDTH 270 0
DWIDTH 6 0
BBX 5 8 1 10
BITMAP
E0
F0
10
70
10
18
F0
60
ENDCHAR
STARTCHAR 00B4
ENCODING 180
SWIDTH 270 0
DWIDTH 6 0
BBX 5 3 1 13
BITMAP
38
F0
80
ENDCHAR
STARTCHAR 00B5
ENCODING 181
SWIDTH 540 0
DWIDTH 12 0
BBX 9 16 2 -5
BITMAP
C180
C180
C180
C180
C180
C180
C180
C180
C180
E780
FD80
C000
C000
C000
C000
C000
ENDCHAR
STARTCHAR 00B6
ENCODING 182
SWIDTH 585 0
DWIDTH 13 0
BBX 11 15 1 0
BITMAP
7FE0
FCC0
FCC0
FCC0
FCC0
FCC0
7CC0
3CC0
0CC0
0CC0
0CC0
0CC0
0CC0
0CC0
0CC0
ENDCHAR
STARTCHAR 00B7
ENCODING 183
SWIDTH 225 0
DWIDTH 5 0
BBX 2 3 1 5
BITMAP
C0
C0
C0
ENDCHAR
STARTCHAR 00B8
ENCODING 184
SWIDTH 270 0
DWIDTH 6 0
BBX 4 5 1 -5
BITMAP
80
60
30
30
E0
ENDCHAR
STARTCHAR 00B9
ENCODING 185
SWIDTH 270 0
DWIDTH 6 0
BBX 3 7 1 11
BITMAP
20
E0
A0
20
20
20
20
ENDCHAR
STARTCHAR 00BA
ENCODING 186
SWIDTH 360 0
DWIDTH 8 0
BBX 6 7 1 8
BITMAP
30
7C
C4
C4
C4
CC
78
ENDCHAR
STARTCHAR 00BB
ENCODING 187
SWIDTH 540 0
DWIDTH 12 0
BBX 10 8 1 1
BITMAP
C200
6300
31C0
18C0
31C0
6300
C200
8000
ENDCHAR
STARTCHAR 00BC
ENCODING 188
SWIDTH 540 0
DWIDTH 12 0
BBX 10 20 1 -2
BITMAP
2000
6000
A000
2080
2080
2100
2100
0200
0600
0400
0800
1800
1000
2300
2300
4200
C6C0
86C0
07C0
00C0
ENDCHAR
STARTCHAR 00BD
ENCODING 189
SWIDTH 540 0
DWIDTH 12 0
BBX 10 20 1 -2
BITMAP
2000
6000
A000
2080
2080
2100
2300
0200
0400
0400
0800
1800
1000
2780
24C0
40C0
8080
8100
0200
07C0
ENDCHAR
STARTCHAR 00BE
ENCODING 190
SWIDTH 540 0
DWIDTH 12 0
BBX 11 20 1 -2
BITMAP
F000
F800
1800
7000
1880
1880
F900
7300
0200
0400
0C00
0800
1000
1100
2100
6300
4240
8240
07E0
0040
ENDCHAR
STARTCHAR 00BF
ENCODING 191
SWIDTH 450 0
DWIDTH 10 0
BBX 8 15 1 -4
BITMAP
0C
0C
00
00
08
0C
18
38
70
E0
C0
C0
C0
C0
7F
ENDCHAR
STARTCHAR 00C0
ENCODING 192
SWIDTH 585 0
DWIDTH 13 0
BBX 12 21 1 0
BITMAP
1000
1C00
0F00
0100
0000
0000
0F00
1B00
1900
1180
3180
3180
3080
20C0
60C0
6040
7FC0
C060
C060
C020
8030
ENDCHAR
STARTCHAR 00C1
ENCODING 193
SWIDTH 585 0
DWIDTH 13 0
BBX 12 20 1 1
BITMAP
0700
1E00
0000
0000
0000
0F00
1B00
1900
1180
3180
3180
3080
20C0
60C0
6040
7FC0
C060
C060
C020
8030
ENDCHAR
STARTCHAR 00C2
ENCODING 194
SWIDTH 585 0
DWIDTH 13 0
BBX 12 21 1 0
BITMAP
0400
0E00
1B00
2080
0000
0000
0F00
1B00
1900
1180
3180
3180
3080
20C0
60C0
6040
7FC0
C060
C060
C020
8030
ENDCHAR
STARTCHAR 00C3
ENCODING 195
SWIDTH 585 0
DWIDTH 13 0
BBX 12 20 1 1
BITMAP
3E80
2780
0000
0000
0000
0F00
1B00
1900
1180
3180
3180
3080
20C0
60C0
6040
7FC0
C060
C060
C020
8030
ENDCHAR
STARTCHAR 00C4
ENCODING 196
SWIDTH 585 0
DWIDTH 13 0
BBX 12 20 1 0
BITMAP
1180
1180
0000
0000
0000
0F00
1B00
1900
1180
3180
3180
3080
20C0
60C0
6040
7FC0
C060
C060
C020
8030
ENDCHAR
STARTCHAR 00C5
ENCODING 197
SWIDTH 585 0
DWIDTH 13 0
BBX 12 19 1 0
BITMAP
0E00
1B00
1100
1B00
0F00
1B00
1900
1180
3180
3180
3080
20C0
60C0
6040
7FC0
C060
C060
C020
8030
ENDCHAR
STARTCHAR 00C6
ENCODING 198
SWIDTH 855 0
DWIDTH 19 0
BBX 17 15 1 0
BITMAP
0FFF80
0CC000
18C000
18C000
18C000
30C000
30FF00
30FF00
20C000
7FC000
7FC000
40C000
C0C000
C0FF80
80FF80
ENDCHAR
STARTCHAR 00C7
ENCODING 199
SWIDTH 540 0
DWIDTH 12 0
BBX 10 21 1 -5
BITMAP
0700
3FC0
7000
6000
4000
C000
C000
C000
C000
C000
C000
4000
6000
6000
3840
1FC0
0400
0700
0180
0180
0700
ENDCHAR
STARTCHAR 00C8
ENCODING 200
SWIDTH 540 0
DWIDTH 12 0
BBX 9 21 2 0
BITMAP
2000
3800
0E00
0200
0000
0000
FF80
C000
C000
C000
C000
C000
FF00
FF00
C000
C000
C000
C000
C000
C000
FF80
ENDCHAR
STARTCHAR 00C9
ENCODING 201
SWIDTH 540 0
DWIDTH 12 0
BBX 9 21 2 0
BITMAP
0200
0E00
3800
2000
0000
0000
FF80
C000
C000
C000
C000
C000
FF00
FF00
C000
C000
C000
C000
C000
C000
FF80
ENDCHAR
STARTCHAR 00CA
ENCODING 202
SWIDTH 540 0
DWIDTH 12 0
BBX 9 21 2 0
BITMAP
0800
1C00
3600
4100
0000
0000
FF80
C000
C000
C000
C000
C000
FF00
FF00
C000
C000
C000
C000
C000
C000
FF80
ENDCHAR
STARTCHAR 00CB
ENCODING 203
SWIDTH 540 0
DWIDTH 12 0
BBX 9 20 2 0
BITMAP
6300
6300
0000
0000
0000
FF80
C000
C000
C000
C000
C000
FF00
FF00
C000
C000
C000
C000
C000
C000
FF80
ENDCHAR
STARTCHAR 00CC
ENCODING 204
SWIDTH 225 0
DWIDTH 5 0
BBX 5 20 0 1
BITMAP
E0
78
08
00
00
30
30
30
30
30
30
30
30
30
30
30
30
30
30
30
ENDCHAR
STARTCHAR 00CD
ENCODING 205
SWIDTH 225 0
DWIDTH 5 0
BBX 6 20 0 1
BITMAP
1C
F0
00
00
00
30
30
30
30
30
30
30
30
30
30
30
30
30
30
30
ENDCHAR
STARTCHAR 00CE
ENCODING 206
SWIDTH 225 0
DWIDTH 5 0
BBX 7 21 -1 0
BITMAP
10
38
64
82
00
00
18
18
18
18
18
18
18
18
18
18
18
18
18
18
18
ENDCHAR
STARTCHAR 00CF
ENCODING 207
SWIDTH 225 0
DWIDTH 5 0
BBX 6 20 0 0
BITMAP
8C
8C
00
00
00
30
30
30
30
30
30
30
30
30
30
30
30
30
30
30
ENDCHAR
STARTCHAR 00D0
ENCODING 208
SWIDTH 630 0
DWIDTH 14 0
BBX 13 15 0 0
BITMAP
3FE0
3070
3030
3018
3018
3018
FE18
FE18
3018
3018
3018
3018
3030
3FE0
3FC0
ENDCHAR
STARTCHAR 00D1
ENCODING 209
SWIDTH 675 0
DWIDTH 15 0
BBX 11 20 2 1
BITMAP
3E80
2780
0000
0000
0000
E060
F060
D060
D860
D860
CC60
CC60
C460
C660
C260
C360
C360
C1E0
C1E0
C0E0
ENDCHAR
STARTCHAR 00D2
ENCODING 210
SWIDTH 675 0
DWIDTH 15 0
BBX 12 20 1 1
BITMAP
0E00
0780
0000
0000
0700
3FC0
3060
6030
4030
C030
C010
C010
C010
C010
C010
4030
6030
6030
38E0
1FC0
ENDCHAR
STARTCHAR 00D3
ENCODING 211
SWIDTH 675 0
DWIDTH 15 0
BBX 12 20 1 1
BITMAP
0380
1E00
0000
0000
0700
3FC0
3060
6030
4030
C030
C010
C010
C010
C010
C010
4030
6030
6030
38E0
1FC0
ENDCHAR
STARTCHAR 00D4
ENCODING 212
SWIDTH 675 0
DWIDTH 15 0
BBX 12 21 1 0
BITMAP
0200
0700
0980
1040
0000
0700
3FC0
3060
6030
4030
C030
C010
C010
C010
C010
C010
4030
6030
6030
38E0
1FC0
ENDCHAR
STARTCHAR 00D5
ENCODING 213
SWIDTH 675 0
DWIDTH 15 0
BBX 12 20 1 1
BITMAP
1E40
2380
0000
0000
0700
3FC0
3060
6030
4030
C030
C010
C010
C010
C010
C010
4030
6030
6030
38E0
1FC0
ENDCHAR
STARTCHAR 00D6
ENCODING 214
SWIDTH 675 0
DWIDTH 15 0
BBX 12 20 1 0
BITMAP
1880
1880
0000
0000
0700
3FC0
3060
6030
4030
C030
C010
C010
C010
C010
C010
4030
6030
6030
38E0
1FC0
ENDCHAR
STARTCHAR 00D7
ENCODING 215
SWIDTH 540 0
DWIDTH 12 0
BBX 9 9 2 1
BITMAP
8180
C300
6600
3C00
1800
3C00
6600
C300
8100
ENDCHAR
STARTCHAR 00D8
ENCODING 216
SWIDTH 675 0
DWIDTH 15 0
BBX 12 20 1 -3
BITMAP
0020
0020
0760
3FC0
30E0
60B0
41B0
C1B0
C110
C310
C210
C610
C410
CC30
6830
7830
38E0
3FC0
2000
6000
ENDCHAR
STARTCHAR 00D9
ENCODING 217
SWIDTH 630 0
DWIDTH 14 0
BBX 11 20 2 1
BITMAP
3800
0F00
0000
0000
0000
8060
8060
8060
8060
8060
8060
8060
8060
8060
8060
8060
C040
C0C0
61C0
3F80
ENDCHAR
STARTCHAR 00DA
ENCODING 218
SWIDTH 630 0
DWIDTH 14 0
BBX 11 20 2 1
BITMAP
0700
1C00
0000
0000
0000
8060
8060
8060
8060
8060
8060
8060
8060
8060
8060
8060
C040
C0C0
61C0
3F80
ENDCHAR
STARTCHAR 00DB
ENCODING 219
SWIDTH 630 0
DWIDTH 14 0
BBX 11 21 2 0
BITMAP
0C00
1E00
3300
0000
0000
0000
8060
8060
8060
8060
8060
8060
8060
8060
8060
8060
8060
C040
C0C0
61C0
3F80
ENDCHAR
STARTCHAR 00DC
ENCODING 220
SWIDTH 630 0
DWIDTH 14 0
BBX 11 20 2 0
BITMAP
3100
3100
0000
0000
0000
8060
8060
8060
8060
8060
8060
8060
8060
8060
8060
8060
C040
C0C0
61C0
3F80
ENDCHAR
STARTCHAR 00DD
ENCODING 221
SWIDTH 540 0
DWIDTH 12 0
BBX 10 21 1 0
BITMAP
0100
0700
1C00
1000
0000
0000
C0C0
C0C0
6180
6180
3300
3300
1E00
0C00
0C00
0C00
0C00
0C00
0C00
0C00
0C00
ENDCHAR
STARTCHAR 00DE
ENCODING 222
SWIDTH 585 0
DWIDTH 13 0
BBX 10 15 2 0
BITMAP
C000
C000
FF00
FF80
C0C0
C0C0
C040
C040
C040
C0C0
C1C0
FF80
C000
C000
C000
ENDCHAR
STARTCHAR 00DF
ENCODING 223
SWIDTH 585 0
DWIDTH 13 0
BBX 10 16 2 0
BITMAP
7E00
E700
8300
8300
8300
8E00
9800
9800
8E00
8780
81C0
80C0
80C0
80C0
81C0
9F80
ENDCHAR
STARTCHAR 00E0
ENCODING 224
SWIDTH 495 0
DWIDTH 11 0
BBX 10 16 1 0
BITMAP
3000
1E00
0200
0000
0000
7F00
0300
0100
0100
0F00
7D00
C100
C100
C100
C380
7FC0
ENDCHAR
STARTCHAR 00E1
ENCODING 225
SWIDTH 495 0
DWIDTH 11 0
BBX 10 16 1 0
BITMAP
0E00
3C00
2000
0000
0000
7F00
0300
0100
0100
0F00
7D00
C100
C100
C100
C380
7FC0
ENDCHAR
STARTCHAR 00E2
ENCODING 226
SWIDTH 495 0
DWIDTH 11 0
BBX 10 16 1 0
BITMAP
1C00
3600
6200
0000
0000
7F00
0300
0100
0100
0F00
7D00
C100
C100
C100
C380
7FC0
ENDCHAR
STARTCHAR 00E3
ENCODING 227
SWIDTH 495 0
DWIDTH 11 0
BBX 10 16 1 0
BITMAP
7000
5F00
0000
0000
0000
7F00
0300
0100
0100
0F00
7D00
C100
C100
C100
C380
7FC0
ENDCHAR
STARTCHAR 00E4
ENCODING 228
SWIDTH 495 0
DWIDTH 11 0
BBX 10 16 1 0
BITMAP
6200
6200
0000
0000
0000
7F00
0300
0100
0100
0F00
7D00
C100
C100
C100
C380
7FC0
ENDCHAR
STARTCHAR 00E5
ENCODING 229
SWIDTH 495 0
DWIDTH 11 0
BBX 10 17 1 0
BITMAP
0800
1600
2200
3200
1C00
0000
7F00
0300
0100
0100
0F00
7D00
C100
C100
C100
C380
7FC0
ENDCHAR
STARTCHAR 00E6
ENCODING 230
SWIDTH 810 0
DWIDTH 18 0
BBX 16 11 1 0
BITMAP
7E7C
03C6
0183
0183
0F03
7FFF
C100
C180
C180
C7C0
7EFE
ENDCHAR
STARTCHAR 00E7
ENCODING 231
SWIDTH 450 0
DWIDTH 10 0
BBX 8 16 1 -5
BITMAP
3F
60
C0
C0
C0
C0
C0
C0
C0
60
3F
08
0C
06
06
1C
ENDCHAR
STARTCHAR 00E8
ENCODING 232
SWIDTH 495 0
DWIDTH 11 0
BBX 9 16 1 0
BITMAP
3000
1E00
0200
0000
0000
3F00
6380
4180
C180
C080
FF80
C000
C000
C000
6000
3F80
ENDCHAR
STARTCHAR 00E9
ENCODING 233
SWIDTH 495 0
DWIDTH 11 0
BBX 9 16 1 0
BITMAP
0600
1C00
1000
0000
0000
3F00
6380
4180
C180
C080
FF80
C000
C000
C000
6000
3F80
ENDCHAR
STARTCHAR 00EA
ENCODING 234
SWIDTH 495 0
DWIDTH 11 0
BBX 9 16 1 0
BITMAP
0C00
1600
2300
0000
0000
3F00
6380
4180
C180
C080
FF80
C000
C000
C000
6000
3F80
ENDCHAR
STARTCHAR 00EB
ENCODING 235
SWIDTH 495 0
DWIDTH 11 0
BBX 9 16 1 0
BITMAP
2300
2300
0000
0000
0000
3F00
6380
4180
C180
C080
FF80
C000
C000
C000
6000
3F80
ENDCHAR
STARTCHAR 00EC
ENCODING 236
SWIDTH 225 0
DWIDTH 5 0
BBX 5 16 -1 0
BITMAP
C0
70
08
00
00
10
10
10
10
10
10
10
10
10
10
10
ENDCHAR
STARTCHAR 00ED
ENCODING 237
SWIDTH 225 0
DWIDTH 5 0
BBX 5 16 1 0
BITMAP
18
F0
80
00
00
40
40
40
40
40
40
40
40
40
40
40
ENDCHAR
STARTCHAR 00EE
ENCODING 238
SWIDTH 225 0
DWIDTH 5 0
BBX 6 16 -1 0
BITMAP
38
68
C4
00
00
10
10
10
10
10
10
10
10
10
10
10
ENDCHAR
STARTCHAR 00EF
ENCODING 239
SWIDTH 225 0
DWIDTH 5 0
BBX 6 16 -1 0
BITMAP
C4
C4
00
00
00
10
10
10
10
10
10
10
10
10
10
10
ENDCHAR
STARTCHAR 00F0
ENCODING 240
SWIDTH 540 0
DWIDTH 12 0
BBX 10 16 1 0
BITMAP
7300
1E00
1F00
3380
0180
00C0
08C0
7FC0
60C0
C0C0
C0C0
C0C0
C0C0
C180
7380
3F00
ENDCHAR
STARTCHAR 00F1
ENCODING 241
SWIDTH 540 0
DWIDTH 12 0
BBX 8 16 2 0
BITMAP
70
5E
00
00
00
BE
C3
81
81
81
81
81
81
81
81
81
ENDCHAR
STARTCHAR 00F2
ENCODING 242
SWIDTH 540 0
DWIDTH 12 0
BBX 10 16 1 0
BITMAP
3800
1E00
0200
0000
0000
3F00
6180
C180
C080
C0C0
C0C0
C0C0
C080
C180
6180
3F00
ENDCHAR
STARTCHAR 00F3
ENCODING 243
SWIDTH 540 0
DWIDTH 12 0
BBX 10 16 1 0
BITMAP
0700
1C00
1000
0000
0000
3F00
6180
C180
C080
C0C0
C0C0
C0C0
C080
C180
6180
3F00
ENDCHAR
STARTCHAR 00F4
ENCODING 244
SWIDTH 540 0
DWIDTH 12 0
BBX 10 16 1 0
BITMAP
0C00
1600
2300
0000
0000
3F00
6180
C180
C080
C0C0
C0C0
C0C0
C080
C180
6180
3F00
ENDCHAR
STARTCHAR 00F5
ENCODING 245
SWIDTH 540 0
DWIDTH 12 0
BBX 10 16 1 0
BITMAP
3800
6F00
0000
0000
0000
3F00
6180
C180
C080
C0C0
C0C0
C0C0
C080
C180
6180
3F00
ENDCHAR
STARTCHAR 00F6
ENCODING 246
SWIDTH 540 0
DWIDTH 12 0
BBX 10 16 1 0
BITMAP
2300
2300
0000
0000
0000
3F00
6180
C180
C080
C0C0
C0C0
C0C0
C080
C180
6180
3F00
ENDCHAR
STARTCHAR 00F7
ENCODING 247
SWIDTH 540 0
DWIDTH 12 0
BBX 7 8 3 1
BITMAP
7C
FE
FE
00
00
00
30
30
ENDCHAR
STARTCHAR 00F8
ENCODING 248
SWIDTH 540 0
DWIDTH 12 0
BBX 10 15 1 -3
BITMAP
0100
0100
3F00
6380
C780
C480
C4C0
C8C0
C8C0
D880
D180
7180
3F00
2000
6000
ENDCHAR
STARTCHAR 00F9
ENCODING 249
SWIDTH 540 0
DWIDTH 12 0
BBX 9 16 1 0
BITMAP
3000
1C00
0600
0000
0000
C080
C080
C080
C080
C080
C080
C080
4080
4080
6380
3E80
ENDCHAR
STARTCHAR 00FA
ENCODING 250
SWIDTH 540 0
DWIDTH 12 0
BBX 9 16 1 0
BITMAP
0700
1C00
1000
0000
0000
C080
C080
C080
C080
C080
C080
C080
4080
4080
6380
3E80
ENDCHAR
STARTCHAR 00FB
ENCODING 251
SWIDTH 540 0
DWIDTH 12 0
BBX 9 16 1 0
BITMAP
1C00
1600
2300
0000
0000
C080
C080
C080
C080
C080
C080
C080
4080
4080
6380
3E80
ENDCHAR
STARTCHAR 00FC
ENCODING 252
SWIDTH 540 0
DWIDTH 12 0
BBX 9 16 1 0
BITMAP
3300
3300
0000
0000
0000
C080
C080
C080
C080
C080
C080
C080
4080
4080
6380
3E80
ENDCHAR
STARTCHAR 00FD
ENCODING 253
SWIDTH 495 0
DWIDTH 11 0
BBX 9 21 1 -5
BITMAP
0700
1C00
1000
0000
0000
8180
C180
C100
4300
6300
6300
6200
2600
3600
3400
1C00
0C00
0C00
0800
1800
1800
ENDCHAR
STARTCHAR 00FE
ENCODING 254
SWIDTH 540 0
DWIDTH 12 0
BBX 9 21 2 -5
BITMAP
8000
8000
8000
8000
8000
FE00
C300
8300
8100
8180
8180
8180
8100
8300
8700
FE00
8000
8000
8000
8000
8000
ENDCHAR
STARTCHAR 00FF
ENCODING 255
SWIDTH 495 0
DWIDTH 11 0
BBX 9 21 1 -5
BITMAP
6200
6200
0000
0000
0000
8180
C180
C100
4300
6300
6300
6200
2600
3600
3400
1C00
0C00
0C00
0800
1800
1800
ENDCHAR
STARTCHAR 0100
ENCODING 256
SWIDTH 585 0
DWIDTH 13 0
BBX 12 19 1 0
BITMAP
3F80
0000
0000
0000
0F00
1B00
1900
1180
3180
3180
3080
20C0
60C0
6040
7FC0
C060
C060
C020
8030
ENDCHAR
STARTCHAR 0101
ENCODING 257
SWIDTH 495 0
DWIDTH 11 0
BBX 10 15 1 0
BITMAP
7F00
0000
0000
0000
7F00
0300
0100
0100
0F00
7D00
C100
C100
C100
C380
7FC0
ENDCHAR
STARTCHAR 0102
ENCODING 258
SWIDTH 585 0
DWIDTH 13 0
BBX 12 20 1 0
BITMAP
3180
1F00
0400
0000
0000
0F00
1B00
1900
1180
3180
3180
3080
20C0
60C0
6040
7FC0
C060
C060
C020
8030
ENDCHAR
STARTCHAR 0103
ENCODING 259
SWIDTH 495 0
DWIDTH 11 0
BBX 10 16 1 0
BITMAP
6300
3F00
1C00
0000
0000
7E00
0300
0100
0100
0F00
7F00
C100
C100
C100
C780
7FC0
ENDCHAR
STARTCHAR 0104
ENCODING 260
SWIDTH 585 0
DWIDTH 13 0
BBX 12 20 1 -5
BITMAP
0F00
1B00
1900
1180
3180
3180
3080
20C0
60C0
6040
7FC0
C060
C060
C020
8030
0060
0040
00C0
00F0
0020
ENDCHAR
STARTCHAR 0105
ENCODING 261
SWIDTH 495 0
DWIDTH 11 0
BBX 10 16 1 -5
BITMAP
7F00
0300
0100
0100
0F00
7D00
C100
C100
C100
C380
7FC0
0180
0300
0300
03C0
0180
ENDCHAR
STARTCHAR 0106
ENCODING 262
SWIDTH 540 0
DWIDTH 12 0
BBX 10 21 1 0
BITMAP
0100
0700
1E00
1000
0000
0700
3FC0
7000
6000
4000
C000
C000
C000
C000
C000
C000
C000
6000
6000
3840
1FC0
ENDCHAR
STARTCHAR 0107
ENCODING 263
SWIDTH 450 0
DWIDTH 10 0
BBX 8 16 1 0
BITMAP
06
3C
20
00
00
3F
60
C0
C0
C0
C0
C0
C0
C0
60
3F
ENDCHAR
STARTCHAR 0108
ENCODING 264
SWIDTH 540 0
DWIDTH 12 0
BBX 10 21 1 0
BITMAP
0600
0F00
1980
0000
0000
0700
3FC0
7000
6000
4000
C000
C000
C000
C000
C000
C000
C000
6000
6000
3840
1FC0
ENDCHAR
STARTCHAR 0109
ENCODING 265
SWIDTH 450 0
DWIDTH 10 0
BBX 8 16 1 0
BITMAP
18
34
66
00
00
3F
60
C0
C0
C0
C0
C0
C0
C0
60
3F
ENDCHAR
STARTCHAR 010A
ENCODING 266
SWIDTH 540 0
DWIDTH 12 0
BBX 10 20 1 0
BITMAP
0400
0400
0000
0000
0700
3FC0
7000
6000
4000
C000
C000
C000
C000
C000
C000
C000
6000
6000
3840
1FC0
ENDCHAR
STARTCHAR 010B
ENCODING 267
SWIDTH 450 0
DWIDTH 10 0
BBX 8 15 1 0
BITMAP
08
00
00
00
3F
60
C0
C0
C0
C0
C0
C0
C0
60
3F
ENDCHAR
STARTCHAR 010C
ENCODING 268
SWIDTH 540 0
DWIDTH 12 0
BBX 10 21 1 0
BITMAP
3180
1B00
0E00
0000
0000
0700
3FC0
7000
6000
4000
C000
C000
C000
C000
C000
C000
C000
6000
6000
3840
1FC0
ENDCHAR
STARTCHAR 010D
ENCODING 269
SWIDTH 450 0
DWIDTH 10 0
BBX 8 16 1 0
BITMAP
26
1C
18
00
00
3F
60
C0
C0
C0
C0
C0
C0
C0
60
3F
ENDCHAR
STARTCHAR 010E
ENCODING 270
SWIDTH 630 0
DWIDTH 14 0
BBX 11 21 2 0
BITMAP
6300
3600
1C00
0000
0000
0000
FF80
C1C0
C0C0
C060
C060
C060
C060
C060
C060
C060
C060
C040
C0C0
C780
FF00
ENDCHAR
STARTCHAR 010F
ENCODING 271
SWIDTH 585 0
DWIDTH 13 0
BBX 13 16 1 0
BITMAP
0180
0198
0198
0190
0190
3F80
6180
4180
C180
C180
C180
C180
C180
C180
6380
3F80
ENDCHAR
STARTCHAR 0110
ENCODING 272
SWIDTH 630 0
DWIDTH 14 0
BBX 13 15 0 0
BITMAP
3FE0
3070
3030
3018
3018
3018
FE18
FE18
3018
3018
3018
3018
3030
3FE0
3FC0
ENDCHAR
STARTCHAR 0111
ENCODING 273
SWIDTH 540 0
DWIDTH 12 0
BBX 10 16 1 0
BITMAP
0180
1FC0
0180
0180
0180
3F80
6180
4180
C180
C180
C180
C180
C180
C180
6380
3F80
ENDCHAR
STARTCHAR 0112
ENCODING 274
SWIDTH 540 0
DWIDTH 12 0
BBX 9 19 2 0
BITMAP
7F00
0000
0000
0000
FF80
C000
C000
C000
C000
C000
FF00
FF00
C000
C000
C000
C000
C000
C000
FF80
ENDCHAR
STARTCHAR 0113
ENCODING 275
SWIDTH 495 0
DWIDTH 11 0
BBX 9 15 1 0
BITMAP
3F00
0000
0000
0000
3F00
6380
4180
C180
C080
FF80
C000
C000
C000
6000
3F80
ENDCHAR
STARTCHAR 0114
ENCODING 276
SWIDTH 540 0
DWIDTH 12 0
BBX 9 20 2 0
BITMAP
6300
3E00
0000
0000
0000
FF80
C000
C000
C000
C000
C000
FF00
FF00
C000
C000
C000
C000
C000
C000
FF80
ENDCHAR
STARTCHAR 0115
ENCODING 277
SWIDTH 495 0
DWIDTH 11 0
BBX 9 16 1 0
BITMAP
6100
3300
1E00
0000
0000
3F00
6380
4180
C180
C080
FF80
C000
C000
C000
6000
3F80
ENDCHAR
STARTCHAR 0116
ENCODING 278
SWIDTH 540 0
DWIDTH 12 0
BBX 9 20 2 0
BITMAP
0800
0800
0000
0000
0000
FF80
C000
C000
C000
C000
C000
FF00
FF00
C000
C000
C000
C000
C000
C000
FF80
ENDCHAR
STARTCHAR 0117
ENCODING 279
SWIDTH 495 0
DWIDTH 11 0
BBX 9 15 1 0
BITMAP
0800
0000
0000
0000
3F00
6380
4180
C180
C080
FF80
C000
C000
C000
6000
3F80
ENDCHAR
STARTCHAR 0118
ENCODING 280
SWIDTH 540 0
DWIDTH 12 0
BBX 9 20 2 -5
BITMAP
FF80
C000
C000
C000
C000
C000
FF00
FF00
C000
C000
C000
C000
C000
C000
FF80
0100
0200
0600
0380
0180
ENDCHAR
STARTCHAR 0119
ENCODING 281
SWIDTH 495 0
DWIDTH 11 0
BBX 9 16 1 -5
BITMAP
3F00
6380
4180
C180
C080
FF80
C000
C000
C000
6000
3F80
0300
0600
0600
0780
0300
ENDCHAR
STARTCHAR 011A
ENCODING 282
SWIDTH 540 0
DWIDTH 12 0
BBX 9 21 2 0
BITMAP
6300
3600
1C00
0000
0000
0000
FF80
C000
C000
C000
C000
C000
FF00
FF00
C000
C000
C000
C000
C000
C000
FF80
ENDCHAR
STARTCHAR 011B
ENCODING 283
SWIDTH 495 0
DWIDTH 11 0
BBX 9 16 1 0
BITMAP
3200
1400
0800
0000
0000
3F00
6380
4180
C180
C080
FF80
C000
C000
C000
6000
3F80
ENDCHAR
STARTCHAR 011C
ENCODING 284
SWIDTH 630 0
DWIDTH 14 0
BBX 11 21 1 0
BITMAP
0600
0F00
1980
30C0
0000
0700
3FE0
7000
6000
4000
C000
C000
C000
C1E0
C1E0
C020
4020
6020
6020
3860
1FE0
ENDCHAR
STARTCHAR 011D
ENCODING 285
SWIDTH 495 0
DWIDTH 11 0
BBX 10 21 1 -5
BITMAP
0C00
1600
2300
0000
0000
7FC0
6300
C180
C180
C180
6300
7E00
2000
6000
7E00
7F80
C0C0
C0C0
C0C0
E180
7F00
ENDCHAR
STARTCHAR 011E
ENCODING 286
SWIDTH 630 0
DWIDTH 14 0
BBX 11 20 1 0
BITMAP
18C0
0F80
0200
0000
0700
3FE0
7000
6000
4000
C000
C000
C000
C1E0
C1E0
C020
4020
6020
6020
3860
1FE0
ENDCHAR
STARTCHAR 011F
ENCODING 287
SWIDTH 495 0
DWIDTH 11 0
BBX 10 21 1 -5
BITMAP
2100
3300
1E00
0000
0000
7FC0
6300
C180
C180
C180
6300
7E00
2000
6000
7E00
7F80
C0C0
C0C0
C0C0
E180
7F00
ENDCHAR
STARTCHAR 0120
ENCODING 288
SWIDTH 630 0
DWIDTH 14 0
BBX 11 20 1 0
BITMAP
0600
0600
0000
0000
0700
3FE0
7000
6000
4000
C000
C000
C000
C1E0
C1E0
C020
4020
6020
6020
3860
1FE0
ENDCHAR
STARTCHAR 0121
ENCODING 289
SWIDTH 495 0
DWIDTH 11 0
BBX 10 20 1 -5
BITMAP
0C00
0000
0000
0000
7FC0
6300
C180
C180
C180
6300
7E00
2000
6000
7E00
7F80
C0C0
C0C0
C0C0
E180
7F00
ENDCHAR
STARTCHAR 0122
ENCODING 290
SWIDTH 630 0
DWIDTH 14 0
BBX 11 22 1 -6
BITMAP
0700
3FE0
7000
6000
4000
C000
C000
C000
C1E0
C1E0
C020
4020
6020
6020
3860
1FE0
0000
0000
0200
0600
0600
0400
ENDCHAR
STARTCHAR 0123
ENCODING 291
SWIDTH 495 0
DWIDTH 11 0
BBX 10 23 1 -5
BITMAP
0C00
0C00
0800
0800
1800
0000
0000
7FC0
6300
C180
C180
C180
6300
7E00
2000
6000
7E00
7F80
C0C0
C0C0
C0C0
E180
7F00
ENDCHAR
STARTCHAR 0124
ENCODING 292
SWIDTH 675 0
DWIDTH 15 0
BBX 11 21 2 0
BITMAP
0400
0E00
1B00
2080
0000
0000
C060
C060
C060
C060
C060
C060
C060
FFE0
C060
C060
C060
C060
C060
C060
C060
ENDCHAR
STARTCHAR 0125
ENCODING 293
SWIDTH 540 0
DWIDTH 12 0
BBX 8 20 2 0
BITMAP
18
2C
66
00
80
80
80
80
80
FE
C3
83
81
81
81
81
81
81
81
81
ENDCHAR
STARTCHAR 0126
ENCODING 294
SWIDTH 675 0
DWIDTH 15 0
BBX 15 15 0 0
BITMAP
3018
3018
FFFE
FFFE
3018
3018
3018
3FF8
3018
3018
3018
3018
3018
3018
3018
ENDCHAR
STARTCHAR 0127
ENCODING 295
SWIDTH 540 0
DWIDTH 12 0
BBX 10 16 0 0
BITMAP
2000
2000
FE00
2000
2000
3F80
30C0
20C0
2040
2040
2040
2040
2040
2040
2040
2040
ENDCHAR
STARTCHAR 0128
ENCODING 296
SWIDTH 225 0
DWIDTH 5 0
BBX 7 20 -1 1
BITMAP
FA
9E
00
00
00
18
18
18
18
18
18
18
18
18
18
18
18
18
18
18
ENDCHAR
STARTCHAR 0129
ENCODING 297
SWIDTH 225 0
DWIDTH 5 0
BBX 7 16 -1 0
BITMAP
62
9E
00
00
00
10
10
10
10
10
10
10
10
10
10
10
ENDCHAR
STARTCHAR 012A
ENCODING 298
SWIDTH 225 0
DWIDTH 5 0
BBX 7 19 -1 0
BITMAP
FE
00
00
00
18
18
18
18
18
18
18
18
18
18
18
18
18
18
18
ENDCHAR
STARTCHAR 012B
ENCODING 299
SWIDTH 225 0
DWIDTH 5 0
BBX 6 15 -1 0
BITMAP
FC
00
00
00
10
10
10
10
10
10
10
10
10
10
10
ENDCHAR
STARTCHAR 012C
ENCODING 300
SWIDTH 225 0
DWIDTH 5 0
BBX 6 20 0 0
BITMAP
84
FC
00
00
00
30
30
30
30
30
30
30
30
30
30
30
30
30
30
30
ENDCHAR
STARTCHAR 012D
ENCODING 301
SWIDTH 225 0
DWIDTH 5 0
BBX 7 16 -1 0
BITMAP
C6
4C
38
00
00
10
10
10
10
10
10
10
10
10
10
10
ENDCHAR
STARTCHAR 012E
ENCODING 302
SWIDTH 225 0
DWIDTH 5 0
BBX 4 20 0 -5
BITMAP
30
30
30
30
30
30
30
30
30
30
30
30
30
30
30
60
40
C0
F0
20
ENDCHAR
STARTCHAR 012F
ENCODING 303
SWIDTH 225 0
DWIDTH 5 0
BBX 4 21 0 -5
BITMAP
20
20
00
00
00
20
20
20
20
20
20
20
20
20
20
20
60
C0
C0
F0
60
ENDCHAR
STARTCHAR 0130
ENCODING 304
SWIDTH 225 0
DWIDTH 5 0
BBX 2 20 2 0
BITMAP
C0
C0
00
00
00
C0
C0
C0
C0
C0
C0
C0
C0
C0
C0
C0
C0
C0
C0
C0
ENDCHAR
STARTCHAR 0131
ENCODING 305
SWIDTH 225 0
DWIDTH 5 0
BBX 1 11 2 0
BITMAP
80
80
80
80
80
80
80
80
80
80
80
ENDCHAR
STARTCHAR 0134
ENCODING 308
SWIDTH 270 0
DWIDTH 6 0
BBX 7 23 0 -2
BITMAP
10
38
64
C2
00
00
18
18
18
18
18
18
18
18
18
18
18
18
18
18
10
F0
C0
ENDCHAR
STARTCHAR 0135
ENCODING 309
SWIDTH 225 0
DWIDTH 5 0
BBX 6 21 -1 -5
BITMAP
38
6C
C4
00
00
10
10
10
10
10
10
10
10
10
10
10
10
30
30
E0
80
ENDCHAR
STARTCHAR 0136
ENCODING 310
SWIDTH 585 0
DWIDTH 13 0
BBX 10 21 2 -6
BITMAP
C0C0
C180
C300
C300
C600
C600
CC00
FC00
CC00
C600
C300
C300
C180
C180
C0C0
0000
0000
0800
0800
1800
1800
ENDCHAR
STARTCHAR 0137
ENCODING 311
SWIDTH 495 0
DWIDTH 11 0
BBX 8 22 2 -6
BITMAP
80
80
80
80
80
83
86
8C
8C
F8
F8
98
8C
86
86
83
00
00
60
40
40
C0
ENDCHAR
STARTCHAR 0139
ENCODING 313
SWIDTH 495 0
DWIDTH 11 0
BBX 8 21 2 0
BITMAP
04
1C
78
40
00
00
C0
C0
C0
C0
C0
C0
C0
C0
C0
C0
C0
C0
C0
FF
FF
ENDCHAR
STARTCHAR 013A
ENCODING 314
SWIDTH 225 0
DWIDTH 5 0
BBX 5 21 1 0
BITMAP
08
38
E0
00
00
40
40
40
40
40
40
40
40
40
40
40
40
40
40
40
40
ENDCHAR
STARTCHAR 013B
ENCODING 315
SWIDTH 495 0
DWIDTH 11 0
BBX 8 21 2 -6
BITMAP
C0
C0
C0
C0
C0
C0
C0
C0
C0
C0
C0
C0
C0
FF
FF
00
00
18
18
10
10
ENDCHAR
STARTCHAR 013C
ENCODING 316
SWIDTH 225 0
DWIDTH 5 0
BBX 2 22 1 -6
BITMAP
40
40
40
40
40
40
40
40
40
40
40
40
40
40
40
40
00
00
C0
C0
C0
80
ENDCHAR
STARTCHAR 013D
ENCODING 317
SWIDTH 495 0
DWIDTH 11 0
BBX 8 15 2 0
BITMAP
C3
C3
C3
C3
C3
C0
C0
C0
C0
C0
C0
C0
C0
FF
FF
ENDCHAR
STARTCHAR 013E
ENCODING 318
SWIDTH 270 0
DWIDTH 6 0
BBX 5 16 2 0
BITMAP
80
88
98
98
90
80
80
80
80
80
80
80
80
80
80
80
ENDCHAR
STARTCHAR 0141
ENCODING 321
SWIDTH 495 0
DWIDTH 11 0
BBX 10 15 0 0
BITMAP
3000
3000
3000
3000
3200
3E00
3800
3000
F000
B000
3000
3000
3000
3FC0
3FC0
ENDCHAR
STARTCHAR 0142
ENCODING 322
SWIDTH 315 0
DWIDTH 7 0
BBX 5 16 1 0
BITMAP
20
20
20
20
20
20
28
38
60
E0
A0
20
20
20
20
20
ENDCHAR
STARTCHAR 0143
ENCODING 323
SWIDTH 675 0
DWIDTH 15 0
BBX 11 21 2 0
BITMAP
0100
0700
1C00
1000
0000
0000
E060
F060
D060
D860
D860
CC60
CC60
C460
C660
C260
C360
C360
C1E0
C1E0
C0E0
ENDCHAR
STARTCHAR 0144
ENCODING 324
SWIDTH 540 0
DWIDTH 12 0
BBX 8 16 2 0
BITMAP
0E
3C
20
00
00
BE
C3
81
81
81
81
81
81
81
81
81
ENDCHAR
STARTCHAR 0145
ENCODING 325
SWIDTH 675 0
DWIDTH 15 0
BBX 11 21 2 -6
BITMAP
E060
F060
D060
D860
D860
CC60
CC60
C460
C660
C260
C360
C360
C1E0
C1E0
C0E0
0000
0000
0600
0400
0400
0C00
ENDCHAR
STARTCHAR 0146
ENCODING 326
SWIDTH 540 0
DWIDTH 12 0
BBX 8 17 2 -6
BITMAP
BE
C3
81
81
81
81
81
81
81
81
81
00
00
20
60
60
40
ENDCHAR
STARTCHAR 0147
ENCODING 327
SWIDTH 675 0
DWIDTH 15 0
BBX 11 21 2 0
BITMAP
3180
1B00
0E00
0400
0000
0000
E060
F060
D060
D860
D860
CC60
CC60
C460
C660
C260
C360
C360
C1E0
C1E0
C0E0
ENDCHAR
STARTCHAR 0148
ENCODING 328
SWIDTH 540 0
DWIDTH 12 0
BBX 8 16 2 0
BITMAP
66
3C
18
00
00
BE
C3
81
81
81
81
81
81
81
81
81
ENDCHAR
STARTCHAR 014A
ENCODING 330
SWIDTH 675 0
DWIDTH 15 0
BBX 11 19 2 -4
BITMAP
E060
F060
D060
D860
D860
CC60
CC60
C460
C660
C260
C360
C360
C1E0
C1E0
C0E0
0060
0060
0060
01C0
ENDCHAR
STARTCHAR 014B
ENCODING 331
SWIDTH 540 0
DWIDTH 12 0
BBX 8 16 2 -5
BITMAP
BE
E3
83
81
81
81
81
81
81
81
81
01
01
03
06
0C
ENDCHAR
STARTCHAR 014C
ENCODING 332
SWIDTH 675 0
DWIDTH 15 0
BBX 12 19 1 0
BITMAP
1FC0
0000
0000
0700
3FC0
3060
6030
4030
C030
C010
C010
C010
C010
C010
4030
6030
6030
38E0
1FC0
ENDCHAR
STARTCHAR 014D
ENCODING 333
SWIDTH 540 0
DWIDTH 12 0
BBX 10 15 1 0
BITMAP
3F00
0000
0000
0000
3F00
6180
C180
C080
C0C0
C0C0
C0C0
C080
C180
6180
3F00
ENDCHAR
STARTCHAR 014E
ENCODING 334
SWIDTH 675 0
DWIDTH 15 0
BBX 12 20 1 0
BITMAP
18C0
0F80
0200
0000
0700
3FC0
3060
6030
4030
C030
C010
C010
C010
C010
C010
4030
6030
6030
38E0
1FC0
ENDCHAR
STARTCHAR 014F
ENCODING 335
SWIDTH 540 0
DWIDTH 12 0
BBX 10 16 1 0
BITMAP
2100
3300
1E00
0000
0000
3F00
6180
C180
C080
C0C0
C0C0
C0C0
C080
C180
6180
3F00
ENDCHAR
STARTCHAR 0150
ENCODING 336
SWIDTH 675 0
DWIDTH 15 0
BBX 12 20 1 0
BITMAP
0660
18C0
3180
0000
0700
3FC0
3060
6030
4030
C030
C010
C010
C010
C010
C010
4030
6030
6030
38E0
1FC0
ENDCHAR
STARTCHAR 0151
ENCODING 337
SWIDTH 540 0
DWIDTH 12 0
BBX 10 17 1 0
BITMAP
0880
1980
3300
2200
0000
0000
3F00
6180
C180
C080
C0C0
C0C0
C0C0
C080
C180
6180
3F00
ENDCHAR
STARTCHAR 0152
ENCODING 338
SWIDTH 945 0
DWIDTH 21 0
BBX 19 16 1 0
BITMAP
0F8000
3FFFE0
706000
606000
406000
C06000
C06000
C07F80
C07F80
C06000
C06000
C06000
606000
606000
38FFE0
1FFFE0
ENDCHAR
STARTCHAR 0153
ENCODING 339
SWIDTH 855 0
DWIDTH 19 0
BBX 17 11 1 0
BITMAP
3F3E00
63E300
C1C180
C0C180
C0C180
C0FF80
C0C000
C0C000
C1C000
63E000
3F3F80
ENDCHAR
STARTCHAR 0154
ENCODING 340
SWIDTH 630 0
DWIDTH 14 0
BBX 10 20 2 1
BITMAP
0E00
3C00
0000
0000
0000
FF80
C1C0
C0C0
C040
C040
C040
C0C0
C1C0
FF00
C300
C100
C180
C080
C0C0
C0C0
ENDCHAR
STARTCHAR 0155
ENCODING 341
SWIDTH 360 0
DWIDTH 8 0
BBX 5 16 2 0
BITMAP
38
F0
80
00
00
98
F8
C0
80
80
80
80
80
80
80
80
ENDCHAR
STARTCHAR 0156
ENCODING 342
SWIDTH 630 0
DWIDTH 14 0
BBX 10 21 2 -6
BITMAP
FF80
C1C0
C0C0
C040
C040
C040
C0C0
C1C0
FF00
C300
C100
C180
C080
C0C0
C0C0
0000
0000
0C00
0C00
0800
0800
ENDCHAR
STARTCHAR 0157
ENCODING 343
SWIDTH 360 0
DWIDTH 8 0
BBX 6 17 1 -6
BITMAP
4C
7C
60
40
40
40
40
40
40
40
40
00
00
C0
C0
C0
80
ENDCHAR
STARTCHAR 0158
ENCODING 344
SWIDTH 630 0
DWIDTH 14 0
BBX 10 21 2 0
BITMAP
6300
3600
1C00
0000
0000
0000
FF80
C1C0
C0C0
C040
C040
C040
C0C0
C1C0
FF00
C300
C100
C180
C080
C0C0
C0C0
ENDCHAR
STARTCHAR 0159
ENCODING 345
SWIDTH 360 0
DWIDTH 8 0
BBX 6 16 1 0
BITMAP
CC
78
30
00
00
4C
7C
60
40
40
40
40
40
40
40
40
ENDCHAR
STARTCHAR 015A
ENCODING 346
SWIDTH 540 0
DWIDTH 12 0
BBX 10 20 1 1
BITMAP
0700
1C00
1000
0000
0E00
7FC0
E000
C000
C000
C000
E000
7C00
1F80
01C0
00C0
00C0
00C0
00C0
C380
FF00
ENDCHAR
STARTCHAR 015B
ENCODING 347
SWIDTH 450 0
DWIDTH 10 0
BBX 8 16 1 0
BITMAP
0E
3C
20
00
00
7F
C0
C0
C0
F0
3E
03
01
01
83
FE
ENDCHAR
STARTCHAR 015C
ENCODING 348
SWIDTH 540 0
DWIDTH 12 0
BBX 10 21 1 0
BITMAP
0C00
1E00
3300
6180
0000
0E00
7FC0
E000
C000
C000
C000
E000
7C00
1F80
01C0
00C0
00C0
00C0
00C0
C380
FF00
ENDCHAR
STARTCHAR 015D
ENCODING 349
SWIDTH 450 0
DWIDTH 10 0
BBX 8 16 1 0
BITMAP
18
34
62
00
00
7F
C0
C0
C0
F0
3E
03
01
01
83
FE
ENDCHAR
STARTCHAR 015E
ENCODING 350
SWIDTH 540 0
DWIDTH 12 0
BBX 10 21 1 -5
BITMAP
0E00
7FC0
E000
C000
C000
C000
E000
7C00
1F80
01C0
00C0
00C0
00C0
00C0
C380
FF00
0400
0700
0100
0300
0E00
ENDCHAR
STARTCHAR 015F
ENCODING 351
SWIDTH 450 0
DWIDTH 10 0
BBX 8 16 1 -5
BITMAP
7F
C0
C0
C0
F0
3E
03
01
01
83
FE
10
0C
06
06
1C
ENDCHAR
STARTCHAR 0160
ENCODING 352
SWIDTH 540 0
DWIDTH 12 0
BBX 10 21 1 0
BITMAP
3180
1B00
0E00
0000
0000
0E00
7FC0
E000
C000
C000
C000
E000
7C00
1F80
01C0
00C0
00C0
00C0
00C0
C380
FF00
ENDCHAR
STARTCHAR 0161
ENCODING 353
SWIDTH 450 0
DWIDTH 10 0
BBX 8 16 1 0
BITMAP
26
14
18
00
00
7F
C0
C0
C0
F0
3E
03
01
01
83
FE
ENDCHAR
STARTCHAR 0162
ENCODING 354
SWIDTH 0 0
DWIDTH 0 0
BBX 0 0 0 0
BITMAP
ENDCHAR
STARTCHAR 0163
ENCODING 355
SWIDTH 360 0
DWIDTH 8 0
BBX 6 20 1 -5
BITMAP
60
60
60
60
FC
60
60
60
60
60
60
60
60
60
3C
40
70
18
18
70
ENDCHAR
STARTCHAR 0164
ENCODING 356
SWIDTH 540 0
DWIDTH 12 0
BBX 11 21 0 0
BITMAP
3080
1900
0E00
0000
0000
0000
FFE0
0600
0600
0600
0600
0600
0600
0600
0600
0600
0600
0600
0600
0600
0600
ENDCHAR
STARTCHAR 0165
ENCODING 357
SWIDTH 450 0
DWIDTH 10 0
BBX 9 15 1 0
BITMAP
6180
6180
6180
6180
FD80
6000
6000
6000
6000
6000
6000
6000
6000
7000
3C00
ENDCHAR
STARTCHAR 0166
ENCODING 358
SWIDTH 540 0
DWIDTH 12 0
BBX 11 15 0 0
BITMAP
FFE0
0600
0600
0600
0600
0600
0600
7FC0
0600
0600
0600
0600
0600
0600
0600
ENDCHAR
STARTCHAR 0167
ENCODING 359
SWIDTH 360 0
DWIDTH 8 0
BBX 7 15 1 0
BITMAP
60
60
60
60
FC
60
60
60
FC
60
60
60
60
70
3E
ENDCHAR
STARTCHAR 0168
ENCODING 360
SWIDTH 630 0
DWIDTH 14 0
BBX 11 20 2 1
BITMAP
3D80
4700
0000
0000
0000
8060
8060
8060
8060
8060
8060
8060
8060
8060
8060
8060
C040
C0C0
61C0
3F80
ENDCHAR
STARTCHAR 0169
ENCODING 361
SWIDTH 540 0
DWIDTH 12 0
BBX 9 16 1 0
BITMAP
3800
6F00
0000
0000
0000
C080
C080
C080
C080
C080
C080
C080
4080
4080
6380
3E80
ENDCHAR
STARTCHAR 016A
ENCODING 362
SWIDTH 630 0
DWIDTH 14 0
BBX 11 19 2 0
BITMAP
3F80
0000
0000
0000
8060
8060
8060
8060
8060
8060
8060
8060
8060
8060
8060
C040
C0C0
61C0
3F80
ENDCHAR
STARTCHAR 016B
ENCODING 363
SWIDTH 540 0
DWIDTH 12 0
BBX 9 15 1 0
BITMAP
3F00
0000
0000
0000
C080
C080
C080
C080
C080
C080
C080
4080
4080
6380
3E80
ENDCHAR
STARTCHAR 016C
ENCODING 364
SWIDTH 630 0
DWIDTH 14 0
BBX 11 20 2 0
BITMAP
3180
3F00
0000
0000
0000
8060
8060
8060
8060
8060
8060
8060
8060
8060
8060
8060
C040
C0C0
61C0
3F80
ENDCHAR
STARTCHAR 016D
ENCODING 365
SWIDTH 540 0
DWIDTH 12 0
BBX 9 16 1 0
BITMAP
2100
3300
1E00
0000
0000
C080
C080
C080
C080
C080
C080
C080
4080
4080
6380
3E80
ENDCHAR
STARTCHAR 016E
ENCODING 366
SWIDTH 630 0
DWIDTH 14 0
BBX 11 21 2 0
BITMAP
1E00
1300
1100
1E00
0C00
0000
8060
8060
8060
8060
8060
8060
8060
8060
8060
8060
8060
C040
C0C0
61C0
3F80
ENDCHAR
STARTCHAR 016F
ENCODING 367
SWIDTH 540 0
DWIDTH 12 0
BBX 9 17 1 0
BITMAP
0C00
1600
1200
1200
1C00
0000
C080
C080
C080
C080
C080
C080
C080
4080
4080
6380
3E80
ENDCHAR
STARTCHAR 0170
ENCODING 368
SWIDTH 630 0
DWIDTH 14 0
BBX 11 20 2 0
BITMAP
0CC0
1980
2300
0000
0000
8060
8060
8060
8060
8060
8060
8060
8060
8060
8060
8060
C040
C0C0
61C0
3F80
ENDCHAR
STARTCHAR 0171
ENCODING 369
SWIDTH 540 0
DWIDTH 12 0
BBX 10 17 1 0
BITMAP
0880
19C0
3380
2200
0000
0000
C080
C080
C080
C080
C080
C080
C080
4080
4080
6380
3E80
ENDCHAR
STARTCHAR 0172
ENCODING 370
SWIDTH 630 0
DWIDTH 14 0
BBX 11 20 2 -5
BITMAP
8060
8060
8060
8060
8060
8060
8060
8060
8060
8060
8060
C040
C0C0
61C0
3F80
0600
0C00
0C00
0F00
0600
ENDCHAR
STARTCHAR 0173
ENCODING 371
SWIDTH 540 0
DWIDTH 12 0
BBX 10 16 1 -5
BITMAP
C080
C080
C080
C080
C080
C080
C080
4080
4080
6380
3E80
0180
0300
0300
03C0
0180
ENDCHAR
STARTCHAR 0174
ENCODING 372
SWIDTH 900 0
DWIDTH 20 0
BBX 18 21 1 0
BITMAP
00C000
01E000
033000
061800
000000
000000
C0C0C0
C1C0C0
C1C080
C16080
416180
612180
632180
633100
623100
221300
261300
361B00
341A00
341A00
1C0E00
ENDCHAR
STARTCHAR 0175
ENCODING 373
SWIDTH 765 0
DWIDTH 17 0
BBX 15 16 1 0
BITMAP
0380
06C0
0C40
0000
0000
8306
C386
C386
4284
46C4
66CC
644C
6448
2C68
3C78
3838
ENDCHAR
STARTCHAR 0176
ENCODING 374
SWIDTH 540 0
DWIDTH 12 0
BBX 10 21 1 0
BITMAP
0C00
1E00
3300
0000
0000
0000
C0C0
C0C0
6180
6180
3300
3300
1E00
0C00
0C00
0C00
0C00
0C00
0C00
0C00
0C00
ENDCHAR
STARTCHAR 0177
ENCODING 375
SWIDTH 495 0
DWIDTH 11 0
BBX 9 21 1 -5
BITMAP
1C00
3600
6200
0000
0000
8180
C180
C100
4300
6300
6300
6200
2600
3600
3400
1C00
0C00
0C00
0800
1800
1800
ENDCHAR
STARTCHAR 0178
ENCODING 376
SWIDTH 540 0
DWIDTH 12 0
BBX 10 20 1 0
BITMAP
3300
3300
0000
0000
0000
C0C0
C0C0
6180
6180
3300
3300
1E00
0C00
0C00
0C00
0C00
0C00
0C00
0C00
0C00
ENDCHAR
STARTCHAR 0179
ENCODING 377
SWIDTH 540 0
DWIDTH 12 0
BBX 10 20 1 1
BITMAP
0700
3C00
0000
0000
0000
FFC0
00C0
0180
0180
0300
0600
0600
0C00
1800
3000
3000
6000
C000
C000
FFC0
ENDCHAR
STARTCHAR 017A
ENCODING 378
SWIDTH 450 0
DWIDTH 10 0
BBX 8 16 1 0
BITMAP
0E
3C
20
00
00
FF
03
06
06
0C
18
30
60
60
C0
FF
ENDCHAR
STARTCHAR 017B
ENCODING 379
SWIDTH 540 0
DWIDTH 12 0
BBX 10 20 1 0
BITMAP
0C00
0C00
0000
0000
0000
FFC0
00C0
0180
0180
0300
0600
0600
0C00
1800
3000
3000
6000
C000
C000
FFC0
ENDCHAR
STARTCHAR 017C
ENCODING 380
SWIDTH 450 0
DWIDTH 10 0
BBX 8 15 1 0
BITMAP
18
00
00
00
FF
03
06
06
0C
18
30
60
60
C0
FF
ENDCHAR
STARTCHAR 017D
ENCODING 381
SWIDTH 540 0
DWIDTH 12 0
BBX 10 21 1 0
BITMAP
6180
3300
1E00
0000
0000
0000
FFC0
00C0
0180
0180
0300
0600
0600
0C00
1800
3000
3000
6000
C000
C000
FFC0
ENDCHAR
STARTCHAR 017E
ENCODING 382
SWIDTH 450 0
DWIDTH 10 0
BBX 8 16 1 0
BITMAP
66
3C
18
00
00
FF
03
06
06
0C
18
30
60
60
C0
FF
ENDCHAR
STARTCHAR 0192
ENCODING 402
SWIDTH 540 0
DWIDTH 12 0
BBX 9 20 1 -5
BITMAP
0F80
0C00
0800
0800
0800
3F00
3F00
0800
0800
0800
0800
0800
0800
0800
0800
0800
0800
1800
1800
F000
ENDCHAR
STARTCHAR 01FA
ENCODING 506
SWIDTH 585 0
DWIDTH 13 0
BBX 12 23 1 0
BITMAP
0100
0700
1C00
1000
0E00
1900
1100
1B00
1F00
1B00
1900
1180
3180
3180
3080
20C0
60C0
6040
7FC0
C060
C060
C020
8030
ENDCHAR
STARTCHAR 01FB
ENCODING 507
SWIDTH 495 0
DWIDTH 11 0
BBX 10 20 1 0
BITMAP
0600
3C00
2000
0800
3400
2200
3600
1C00
0000
7F00
0300
0100
0100
0F00
7D00
C100
C100
C100
C380
7FC0
ENDCHAR
STARTCHAR 01FC
ENCODING 508
SWIDTH 855 0
DWIDTH 19 0
BBX 17 20 1 1
BITMAP
003800
00F000
000000
000000
000000
0FFF80
0CC000
18C000
18C000
18C000
30C000
30FF00
30FF00
20C000
7FC000
7FC000
40C000
C0C000
C0FF80
80FF80
ENDCHAR
STARTCHAR 01FD
ENCODING 509
SWIDTH 810 0
DWIDTH 18 0
BBX 16 16 1 0
BITMAP
00E0
0380
0200
0000
0000
7E7C
03C6
0183
0183
0F03
7FFF
C100
C180
C180
C7C0
7EFE
ENDCHAR
STARTCHAR 01FE
ENCODING 510
SWIDTH 675 0
DWIDTH 15 0
BBX 12 23 1 -3
BITMAP
0080
0380
0E00
0820
0020
0760
3FC0
30E0
60B0
41B0
C1B0
C110
C310
C210
C610
C410
4C30
6830
7830
38E0
3FC0
2000
6000
ENDCHAR
STARTCHAR 01FF
ENCODING 511
SWIDTH 540 0
DWIDTH 12 0
BBX 10 18 1 -3
BITMAP
0600
1C00
3000
0100
0100
3F00
6380
C780
C480
C4C0
C8C0
C8C0
D880
D180
7180
3F00
2000
6000
ENDCHAR
STARTCHAR 0218
ENCODING 536
SWIDTH 540 0
DWIDTH 12 0
BBX 10 22 1 -6
BITMAP
0E00
7FC0
E000
C000
C000
C000
E000
7C00
1F80
01C0
00C0
00C0
00C0
00C0
C380
FF00
0000
0000
0C00
0C00
0C00
0800
ENDCHAR
STARTCHAR 0219
ENCODING 537
SWIDTH 450 0
DWIDTH 10 0
BBX 8 17 1 -6
BITMAP
7F
C0
C0
C0
F0
3E
03
01
01
83
FE
00
00
30
30
20
20
ENDCHAR
STARTCHAR 021A
ENCODING 538
SWIDTH 540 0
DWIDTH 12 0
BBX 11 21 0 -6
BITMAP
FFE0
0600
0600
0600
0600
0600
0600
0600
0600
0600
0600
0600
0600
0600
0600
0000
0000
0600
0600
0400
0400
ENDCHAR
STARTCHAR 021B
ENCODING 539
SWIDTH 360 0
DWIDTH 8 0
BBX 6 21 1 -6
BITMAP
60
60
60
60
FC
60
60
60
60
60
60
60
60
60
3C
00
00
30
20
20
60
ENDCHAR
STARTCHAR 02C6
ENCODING 710
SWIDTH 225 0
DWIDTH 5 0
BBX 6 3 0 13
BITMAP
30
58
CC
ENDCHAR
STARTCHAR 02C7
ENCODING 711
SWIDTH 225 0
DWIDTH 5 0
BBX 6 3 0 13
BITMAP
CC
78
30
ENDCHAR
STARTCHAR 02D8
ENCODING 728
SWIDTH 225 0
DWIDTH 5 0
BBX 6 3 0 13
BITMAP
84
CC
78
ENDCHAR
STARTCHAR 02D9
ENCODING 729
SWIDTH 225 0
DWIDTH 5 0
BBX 1 1 2 14
BITMAP
80
ENDCHAR
STARTCHAR 02DA
ENCODING 730
SWIDTH 225 0
DWIDTH 5 0
BBX 5 5 0 12
BITMAP
20
58
88
48
70
ENDCHAR
STARTCHAR 02DB
ENCODING 731
SWIDTH 450 0
DWIDTH 10 0
BBX 4 5 4 -5
BITMAP
60
40
C0
F0
20
ENDCHAR
STARTCHAR 02DC
ENCODING 732
SWIDTH 225 0
DWIDTH 5 0
BBX 7 2 -1 14
BITMAP
70
DE
ENDCHAR
STARTCHAR 02DD
ENCODING 733
SWIDTH 225 0
DWIDTH 5 0
BBX 8 4 -1 13
BITMAP
11
33
66
C4
ENDCHAR
STARTCHAR 03C0
ENCODING 960
SWIDTH 540 0
DWIDTH 12 0
BBX 12 11 0 0
BITMAP
FFF0
90C0
10C0
10C0
10C0
10C0
10C0
30C0
30C0
30C0
3070
ENDCHAR
STARTCHAR 1E80
ENCODING 7808
SWIDTH 900 0
DWIDTH 20 0
BBX 18 20 1 1
BITMAP
038000
00E000
002000
000000
000000
C0C0C0
C1C0C0
C1C080
C16080
416180
612180
632180
633100
623100
221300
261300
361B00
341A00
341A00
1C0E00
ENDCHAR
STARTCHAR 1E81
ENCODING 7809
SWIDTH 765 0
DWIDTH 17 0
BBX 15 16 1 0
BITMAP
0E00
0380
0080
0000
0000
8306
C386
C386
4284
46C4
66CC
644C
6448
2C68
3C78
3838
ENDCHAR
STARTCHAR 1E82
ENCODING 7810
SWIDTH 900 0
DWIDTH 20 0
BBX 18 20 1 1
BITMAP
007000
03C000
000000
000000
000000
C0C0C0
C1C0C0
C1C080
C16080
416180
612180
632180
633100
623100
221300
261300
361B00
341A00
341A00
1C0E00
ENDCHAR
STARTCHAR 1E83
ENCODING 7811
SWIDTH 765 0
DWIDTH 17 0
BBX 15 16 1 0
BITMAP
00C0
0380
0600
0000
0000
8306
C386
C386
4284
46C4
66CC
644C
6448
2C68
3C78
3838
ENDCHAR
STARTCHAR 1E84
ENCODING 7812
SWIDTH 900 0
DWIDTH 20 0
BBX 18 20 1 0
BITMAP
023000
023000
000000
000000
000000
C0C0C0
C1C0C0
C1C080
C16080
416180
612180
632180
633100
623100
221300
261300
361B00
341A00
341A00
1C0E00
ENDCHAR
STARTCHAR 1E85
ENCODING 7813
SWIDTH 765 0
DWIDTH 17 0
BBX 15 16 1 0
BITMAP
0C60
0C60
0000
0000
0000
8306
C386
C386
4284
46C4
66CC
644C
6448
2C68
3C78
3838
ENDCHAR
STARTCHAR 1EAB
ENCODING 7851
SWIDTH 495 0
DWIDTH 11 0
BBX 10 19 1 0
BITMAP
2000
7F00
0400
0800
1C00
2600
6300
0000
7F00
0300
0100
0100
0F00
7D00
C100
C100
C100
C380
7FC0
ENDCHAR
STARTCHAR 1EB0
ENCODING 7856
SWIDTH 585 0
DWIDTH 13 0
BBX 12 24 1 0
BITMAP
2000
3C00
0600
0000
3080
3180
1F00
0000
0000
1F00
1B00
1900
1180
3180
3180
3080
20C0
60C0
7FC0
7FC0
C060
C060
C060
8030
ENDCHAR
STARTCHAR 1EC5
ENCODING 7877
SWIDTH 495 0
DWIDTH 11 0
BBX 9 19 1 0
BITMAP
3000
7F00
0600
0800
1C00
3600
6300
0000
3F00
6380
4180
C180
C080
FF80
C000
C000
C000
6000
3F80
ENDCHAR
STARTCHAR 1ED7
ENCODING 7895
SWIDTH 540 0
DWIDTH 12 0
BBX 10 19 1 0
BITMAP
3000
7F00
0600
0800
1C00
3200
6300
0000
3F00
6180
C180
C080
C0C0
C0C0
C0C0
C080
C180
6180
3F00
ENDCHAR
STARTCHAR 1EF2
ENCODING 7922
SWIDTH 540 0
DWIDTH 12 0
BBX 10 20 1 1
BITMAP
3800
0E00
0200
0000
0000
C0C0
C0C0
6180
6180
3300
3300
1E00
0C00
0C00
0C00
0C00
0C00
0C00
0C00
0C00
ENDCHAR
STARTCHAR 1EF3
ENCODING 7923
SWIDTH 495 0
DWIDTH 11 0
BBX 9 21 1 -5
BITMAP
7000
1C00
0400
0000
0000
8180
C180
C100
4300
6300
6300
6200
2600
3600
3400
1C00
0C00
0C00
0800
1800
1800
ENDCHAR
STARTCHAR 1EF8
ENCODING 7928
SWIDTH 540 0
DWIDTH 12 0
BBX 10 20 1 0
BITMAP
3D00
0700
0000
0000
0000
C0C0
C0C0
6180
6100
3300
3600
1E00
0C00
0C00
0C00
0C00
0C00
0C00
0C00
0C00
ENDCHAR
STARTCHAR 1EF9
ENCODING 7929
SWIDTH 495 0
DWIDTH 11 0
BBX 9 21 1 -5
BITMAP
3000
5F00
0000
0000
0000
8180
C180
C100
4300
6300
6300
6200
2600
3600
3C00
1C00
0C00
0C00
0800
1800
1800
ENDCHAR
STARTCHAR 2013
ENCODING 8211
SWIDTH 630 0
DWIDTH 14 0
BBX 12 2 1 5
BITMAP
FFF0
FFF0
ENDCHAR
STARTCHAR 2014
ENCODING 8212
SWIDTH 1125 0
DWIDTH 25 0
BBX 23 2 1 5
BITMAP
FFFFFE
FFFFFE
ENDCHAR
STARTCHAR 2018
ENCODING 8216
SWIDTH 225 0
DWIDTH 5 0
BBX 3 5 1 11
BITMAP
60
60
40
40
C0
ENDCHAR
STARTCHAR 2019
ENCODING 8217
SWIDTH 225 0
DWIDTH 5 0
BBX 3 5 1 11
BITMAP
60
60
40
C0
C0
ENDCHAR
STARTCHAR 201A
ENCODING 8218
SWIDTH 225 0
DWIDTH 5 0
BBX 0 0 1 0
BITMAP
ENDCHAR
STARTCHAR 201C
ENCODING 8220
SWIDTH 360 0
DWIDTH 8 0
BBX 6 5 1 11
BITMAP
64
64
4C
4C
C8
ENDCHAR
STARTCHAR 201D
ENCODING 8221
SWIDTH 360 0
DWIDTH 8 0
BBX 6 5 1 11
BITMAP
64
6C
4C
CC
C8
ENDCHAR
STARTCHAR 201E
ENCODING 8222
SWIDTH 360 0
DWIDTH 8 0
BBX 5 4 1 -2
BITMAP
48
C8
D8
98
ENDCHAR
STARTCHAR 2020
ENCODING 8224
SWIDTH 495 0
DWIDTH 11 0
BBX 9 17 1 -2
BITMAP
1800
1800
1800
1800
FF80
1800
1800
1800
0800
0800
0800
0800
0800
0800
0800
0800
0800
ENDCHAR
STARTCHAR 2021
ENCODING 8225
SWIDTH 540 0
DWIDTH 12 0
BBX 9 17 1 -2
BITMAP
0C00
0C00
0C00
0C00
FF80
0C00
0C00
0C00
0C00
0C00
0C00
FF80
0C00
0C00
0C00
0C00
0C00
ENDCHAR
STARTCHAR 2022
ENCODING 8226
SWIDTH 495 0
DWIDTH 11 0
BBX 6 7 2 2
BITMAP
FC
FC
FC
FC
FC
FC
FC
ENDCHAR
STARTCHAR 2026
ENCODING 8230
SWIDTH 720 0
DWIDTH 16 0
BBX 14 3 1 0
BITMAP
C30C
C30C
C30C
ENDCHAR
STARTCHAR 2030
ENCODING 8240
SWIDTH 855 0
DWIDTH 19 0
BBX 17 15 1 0
BITMAP
710000
D10000
9B0000
9A0000
9A0000
F20000
040000
040000
040000
09C700
0B6D80
0B2980
1A2980
136980
11C700
ENDCHAR
STARTCHAR 2039
ENCODING 8249
SWIDTH 315 0
DWIDTH 7 0
BBX 4 7 1 1
BITMAP
10
30
E0
80
E0
30
10
ENDCHAR
STARTCHAR 203A
ENCODING 8250
SWIDTH 315 0
DWIDTH 7 0
BBX 5 7 1 2
BITMAP
C0
60
30
18
30
60
C0
ENDCHAR
STARTCHAR 2044
ENCODING 8260
SWIDTH 0 0
DWIDTH 0 0
BBX 9 14 -5 1
BITMAP
0080
0180
0100
0200
0200
0400
0C00
0800
1000
3000
2000
4000
4000
8000
ENDCHAR
STARTCHAR 2070
ENCODING 8304
SWIDTH 270 0
DWIDTH 6 0
BBX 6 8 0 10
BITMAP
30
78
4C
CC
CC
4C
78
30
ENDCHAR
STARTCHAR 2074
ENCODING 8308
SWIDTH 270 0
DWIDTH 6 0
BBX 5 7 1 11
BITMAP
60
40
C0
D0
90
F8
10
ENDCHAR
STARTCHAR 2075
ENCODING 8309
SWIDTH 270 0
DWIDTH 6 0
BBX 5 8 1 10
BITMAP
F0
F0
80
F0
18
18
F0
60
ENDCHAR
STARTCHAR 2076
ENCODING 8310
SWIDTH 270 0
DWIDTH 6 0
BBX 5 8 1 10
BITMAP
70
F0
80
F0
98
98
F0
60
ENDCHAR
STARTCHAR 2077
ENCODING 8311
SWIDTH 270 0
DWIDTH 6 0
BBX 4 8 1 10
BITMAP
F0
F0
10
30
20
60
40
40
ENDCHAR
STARTCHAR 2078
ENCODING 8312
SWIDTH 270 0
DWIDTH 6 0
BBX 6 8 0 10
BITMAP
38
6C
4C
78
4C
CC
78
30
ENDCHAR
STARTCHAR 2079
ENCODING 8313
SWIDTH 270 0
DWIDTH 6 0
BBX 5 8 1 10
BITMAP
60
F0
98
98
F8
10
F0
60
ENDCHAR
STARTCHAR 2080
ENCODING 8320
SWIDTH 270 0
DWIDTH 6 0
BBX 6 7 0 -2
BITMAP
38
68
4C
CC
CC
4C
78
ENDCHAR
STARTCHAR 2081
ENCODING 8321
SWIDTH 270 0
DWIDTH 6 0
BBX 4 7 1 -2
BITMAP
30
70
B0
30
30
30
30
ENDCHAR
STARTCHAR 2082
ENCODING 8322
SWIDTH 270 0
DWIDTH 6 0
BBX 5 7 1 -2
BITMAP
F0
B0
10
30
60
C0
F8
ENDCHAR
STARTCHAR 2083
ENCODING 8323
SWIDTH 270 0
DWIDTH 6 0
BBX 5 7 1 -2
BITMAP
F0
10
10
70
10
18
F0
ENDCHAR
STARTCHAR 2084
ENCODING 8324
SWIDTH 270 0
DWIDTH 6 0
BBX 5 7 1 -2
BITMAP
60
40
C0
D0
90
F8
10
ENDCHAR
STARTCHAR 2085
ENCODING 8325
SWIDTH 270 0
DWIDTH 6 0
BBX 4 7 1 -2
BITMAP
F0
F0
80
F0
10
10
F0
ENDCHAR
STARTCHAR 2086
ENCODING 8326
SWIDTH 270 0
DWIDTH 6 0
BBX 5 7 1 -2
BITMAP
70
C0
80
F0
98
98
F0
ENDCHAR
STARTCHAR 2087
ENCODING 8327
SWIDTH 270 0
DWIDTH 6 0
BBX 4 7 1 -2
BITMAP
F0
F0
10
30
20
60
40
ENDCHAR
STARTCHAR 2088
ENCODING 8328
SWIDTH 270 0
DWIDTH 6 0
BBX 6 7 0 -2
BITMAP
78
4C
4C
78
4C
CC
78
ENDCHAR
STARTCHAR 2089
ENCODING 8329
SWIDTH 270 0
DWIDTH 6 0
BBX 5 7 1 -2
BITMAP
E0
90
90
98
F8
10
F0
ENDCHAR
STARTCHAR 20AC
ENCODING 8364
SWIDTH 540 0
DWIDTH 12 0
BBX 10 15 1 0
BITMAP
0FC0
3FC0
3000
6000
6000
FF80
FF80
6000
6000
FF80
6000
6000
2000
3800
1FC0
ENDCHAR
STARTCHAR 2122
ENCODING 8482
SWIDTH 675 0
DWIDTH 15 0
BBX 11 7 2 7
BITMAP
F620
2660
2560
2560
25A0
24A0
2420
ENDCHAR
STARTCHAR 2126
ENCODING 8486
SWIDTH 540 0
DWIDTH 12 0
BBX 10 15 1 0
BITMAP
1F00
7F80
6080
40C0
C0C0
C0C0
C0C0
C0C0
40C0
40C0
6080
2180
3100
1300
F3C0
ENDCHAR
STARTCHAR 2202
ENCODING 8706
SWIDTH 540 0
DWIDTH 12 0
BBX 10 16 1 0
BITMAP
3F00
6380
0180
00C0
00C0
00C0
0CC0
3FC0
60C0
C0C0
C0C0
C0C0
C0C0
C180
7380
3F00
ENDCHAR
STARTCHAR 2206
ENCODING 8710
SWIDTH 540 0
DWIDTH 12 0
BBX 10 15 1 0
BITMAP
0E00
1E00
1A00
1300
1300
3300
3100
2180
2180
6180
6080
40C0
C0C0
C0C0
FFC0
ENDCHAR
STARTCHAR 220F
ENCODING 8719
SWIDTH 540 0
DWIDTH 12 0
BBX 11 21 1 -4
BITMAP
FFE0
FFE0
6180
6180
6180
6180
6180
6180
6180
6180
6180
6180
6180
6180
6180
6180
6180
6180
6180
6180
6180
ENDCHAR
STARTCHAR 2211
ENCODING 8721
SWIDTH 540 0
DWIDTH 12 0
BBX 10 21 1 -4
BITMAP
FFC0
FFC0
C000
6000
2000
3000
1800
0C00
0600
0600
0200
0600
0C00
0800
1800
3000
6000
6000
C000
FFC0
FFC0
ENDCHAR
STARTCHAR 2212
ENCODING 8722
SWIDTH 540 0
DWIDTH 12 0
BBX 10 1 1 5
BITMAP
FFC0
ENDCHAR
STARTCHAR 221A
ENCODING 8730
SWIDTH 540 0
DWIDTH 12 0
BBX 12 20 0 -3
BITMAP
0010
0030
0030
0030
0020
0060
0060
E040
E040
20C0
30C0
3080
3180
1180
1980
1900
1B00
0B00
0E00
0E00
ENDCHAR
STARTCHAR 221E
ENCODING 8734
SWIDTH 540 0
DWIDTH 12 0
BBX 11 7 1 3
BITMAP
73C0
DE40
8C60
8460
8C60
CE60
F3C0
ENDCHAR
STARTCHAR 222B
ENCODING 8747
SWIDTH 540 0
DWIDTH 12 0
BBX 8 21 2 -4
BITMAP
0F
0C
18
18
18
18
18
18
18
18
18
18
18
18
18
18
18
18
18
38
F0
ENDCHAR
STARTCHAR 2248
ENCODING 8776
SWIDTH 540 0
DWIDTH 12 0
BBX 10 7 1 2
BITMAP
3800
FFC0
0380
0000
3000
FEC0
0780
ENDCHAR
STARTCHAR 2260
ENCODING 8800
SWIDTH 540 0
DWIDTH 12 0
BBX 10 12 1 -1
BITMAP
0100
0100
0300
0200
FFC0
0400
0C00
0C00
FFC0
1800
1000
3000
ENDCHAR
STARTCHAR 2264
ENCODING 8804
SWIDTH 540 0
DWIDTH 12 0
BBX 10 11 1 0
BITMAP
00C0
07C0
3E00
F000
F000
1E00
03C0
00C0
0000
FFC0
FFC0
ENDCHAR
STARTCHAR 2265
ENCODING 8805
SWIDTH 540 0
DWIDTH 12 0
BBX 9 11 2 0
BITMAP
8000
F000
3E00
0380
0780
3E00
F000
8000
0000
FF80
FF80
ENDCHAR
STARTCHAR 25CA
ENCODING 9674
SWIDTH 540 0
DWIDTH 12 0
BBX 9 4 2 5
BITMAP
2800
C380
4200
0800
ENDCHAR
STARTCHAR F6BE
ENCODING 63166
SWIDTH 225 0
DWIDTH 5 0
BBX 4 16 -1 -5
BITMAP
10
10
10
10
10
10
10
10
10
10
10
10
30
30
E0
80
ENDCHAR
STARTCHAR F6C3
ENCODING 63171
SWIDTH 180 0
DWIDTH 4 0
BBX 2 4 1 -6
BITMAP
C0
C0
80
80
ENDCHAR
ENDFONT
